<svg xmlns="http://www.w3.org/2000/svg" viewBox="0 0 78.83 184.26">
  <defs>
    <style>
      .cls-1 {
        fill: #fdfdfd;
      }

      .cls-2 {
        fill: #e8e4e5;
      }

      .cls-3 {
        fill: #817096;
      }

      .cls-4 {
        fill: #beb5c6;
      }

      .cls-5 {
        fill: #eaaf8a;
      }

      .cls-6 {
        fill: #1c1415;
      }
    </style>
  </defs>
  <title>missingno</title>
  <g id="Calque_2" data-name="Calque 2">
    <g id="Calque_1-2" data-name="Calque 1">
      <g>
        <path class="cls-1" d="M1.83,85.78C.49,85.46.07,86,.1,87.35s.17,1.85,1.62,1.79c1.23,0,1.85-.25,1.79-1.68C3.47,86.24,3.3,85.44,1.83,85.78ZM26.53,2c-.35,1.23.1,1.72,1.5,1.73S29.72,3.23,29.7,2,29.53.26,28.18.35C27,.42,26.11.41,26.53,2Z"/>
        <path class="cls-1" d="M72.31,184.26H26.08l.41-.4h9.86c3.08,0,3.08,0,3.18-3l3.06,0c.41,3,.41,3,3.52,3a12.83,12.83,0,0,1,1.52,0c1.28.17,1.83-.25,1.74-1.63-.11-1.7,0-3.41,0-5.11,0-3.21,0-3.21-3.26-3.1L42.94,174l0-3.08,6.35,0,3.22.09.15,3.14c0,1.64,0,3.28-.14,4.91-.09,1.25.24,2,1.65,1.75s1.75.45,1.57,1.65c-.26,1.78,1,1.42,2,1.53,1.4.15,1.5-.59,1.51-1.69a71.12,71.12,0,0,1,.13-8.13l9.53-.1c1,.61,2.17.05,3.22.4,0,1.36.66,3.15-1.83,2.93-1.49-.14-1.38.79-1.42,1.79-.06,1.17.4,1.62,1.54,1.5a12.92,12.92,0,0,1,1.52,0A8.72,8.72,0,0,1,72.31,184.26Zm-8.5-7c-1.58-.46-1.41.67-1.49,1.76-.09,1.31.34,1.74,1.7,1.76,1.53,0,1.74-.66,1.77-2C65.81,177.37,65.15,177,63.81,177.25Z"/>
        <path class="cls-1" d="M49,0H62.76l-.44.42c-1,0-2,0-3,0-3.46,0-3.46,0-3.46,3.51,0,3.11,0,3.11,3.21,3l3.37,0,6.51,0,3.27.06c-.24,3.18-.24,3.18-3,3.3-.34.08-.63.32-.58.65.39,2.42-1,2.73-2.88,2.46,0-.32,0-.64,0-.95.08-1.32,0-2.3-1.84-2.27s-1.54,1.18-1.57,2.27c0,.32,0,.63,0,.95h-3.2a8.75,8.75,0,0,1,0-1.14c.11-1.22,0-2-1.65-2s-1.74.77-1.63,2c0,.38,0,.76,0,1.14a.11.11,0,0,0-.17,0c-3.44.18-3.17-.44-3.28,3.31l-6.45.2c0-1.07,0-2.14,0-3.21a14.69,14.69,0,0,1,1.87-.13c1,0,1.64-.21,1.47-1.35-.23-1.53.44-2.06,1.91-1.86,1,.13,1.39-.35,1.3-1.32,0-.68-.07-1.38-.11-2.06-.27-1.15,1-2.29,0-3.44,0-3.07,0-3.07-3-3Z"/>
        <path class="cls-2" d="M49,0l.41.4c-.27,3.37-.25,3.39,3,3,1,1.15-.29,2.29,0,3.44-1.7,0-3.68.56-3.34-2.38.1-.91-.83-.83-1.4-.76-1.5.2-1.89-.51-1.72-1.84A8.42,8.42,0,0,0,45.91.4l.42-.4Z"/>
        <path class="cls-2" d="M62.32.42,62.76,0h5.73L69,.43c0,1.13-.07,2.27-.1,3.4l0,0a44.35,44.35,0,0,0-6.52,0Z"/>
        <path class="cls-2" d="M26.49,183.86l-.41.4H23c0-1.24-.05-2.48-.07-3.73l.11-.12a10.07,10.07,0,0,0,3.42,0Z"/>
        <path class="cls-2" d="M78.81,0l0,3.86a10.67,10.67,0,0,0-3.43-.06l0,0,0-3.44c.3,0,.62-.06.78-.39Z"/>
        <path class="cls-2" d="M72.31,184.26a8.72,8.72,0,0,0-.39-3.62l3.46-.21.09,3.39-.48.44Z"/>
        <path class="cls-1" d="M76.13,0c-.16.33-.48.35-.78.39L69,.43,68.49,0Z"/>
        <path class="cls-3" d="M78.73,66.06v6.85c-2.11-.42-4.22.12-6.34,0a1,1,0,0,1-.34-.1l.27-.71a11.43,11.43,0,0,1,1.31,0c1.16.1,1.83-.1,1.83-1.56s-.92-1.5-1.95-1.44c-.56,0-1.11.12-1.66.18a3.42,3.42,0,0,0-1.74,0c-.79-.14-1,.26-1,1l-.26,2.5-3.37.11H55c-2.8,0-3,.27-2.2,3.09a2.76,2.76,0,0,0-.29.88c0,1.08-.55,2.41,1.5,2.51s1.91-1,1.83-2.34c0-.32,0-.63-.08-.94a7.86,7.86,0,0,1,3.31.08,13.13,13.13,0,0,0,.15,3.13c-.56,2.91-.25,3.31,2.39,3.08l.75.07c0,1.11,0,2.22,0,3.33l-6.5.08c0-.44,0-.88,0-1.33,0-1,.28-2.1-1.51-2.1s-1.92.76-1.81,2.09a9.7,9.7,0,0,1,0,1.32,6,6,0,0,1-.95,0c-1.75-.28-2.46.45-2.17,2.19,0,.31,0,.62.08.94l-.57,0c-1.64.09-3.33.25-2.93-2.29a.6.6,0,0,0-.44-.74c-.86-.12-1.84-.41-2.54.21s-.44,1.56-.28,2.33c.2.93,1.07.76,1.73.7,1.25-.1,1.74.41,1.6,1.63,0,.5,0,1,0,1.51l-6.49,0,0,0c0-.76,0-1.52,0-2.28s-.21-1.2-1-1.08c-2.25.35-2.31-1-2.19-2.61.06-.76,0-1.52,0-2.28,0-1.18-.5-1.77-1.74-1.65-.57.06-1.14,0-1.72,0l-3.14,0c-.39-3.17-.31-3.25,2.68-3.27,1.19,0,2.37-.1,3.56-.15a15.69,15.69,0,0,0,3.49.16,6,6,0,0,1,0,1c-.32,1.89.54,2.45,2.33,2.26,1.38-.15,2.79-.06,4.18-.08.5,0,1,0,1.5.08,1.08.07,1.9.05,1.91-1.49s-.65-1.82-1.92-1.68a15,15,0,0,1-1.5,0c0-4,.18-3.23-3.36-3.4l-.06-3,.08.06c.67,0,1.34,0,2-.08s1.31.18,1.25-.82l.07-2.94L49.3,69l3.14,0a2.44,2.44,0,0,1,.09.75c-.27,1.82.45,2.43,2.3,2.32,2.53-.16,5.08,0,7.62,0,3.06,0,3.06,0,3.33-3,1.66.06,3.6.56,3.18-2.32-.12-.79.68-.75,1.25-.74Z"/>
        <path class="cls-3" d="M3.49,95.66c4.71,0,9.42-.08,14.13,0,1.53,0,2.17-.37,2.11-2-.12-3.11-.11-6.23,0-9.34.05-1.49-.51-1.82-1.88-1.8-5.29.07-10.57,0-15.86,0-1.33,0-1.91-.22-1.91-1.75S.87,79.24,2,79.24c8,0,16,0,24.06,0l.35.17c0,2.12.05,4.24.07,6.36-.09,1.08-.17,2.15-.25,3.23C23,88.82,23,88.82,23,92c0,.13,0,.25,0,.38,0,3.21,0,3.21,3.18,3.29a.61.61,0,0,1,.18,0l.73-.21a3.83,3.83,0,0,0,2.5,0c3.18.28,3.18.28,3.28-2.88,0-.12,0-.25.06-.37h0l6.54,0,0,0c-.12,1.79-.39,3.66,2.47,3.17.6-.1.84.43.84,1,0,.74,0,1.49,0,2.24L36,98.83h0c0-.38.06-.75.07-1.13,0-1.08.2-2.08-1.54-2.08s-1.68.85-1.6,2c0,.37,0,.75.05,1.13l-3.37.06c-3.14,0-3.14,0-3.24,3.15a1.55,1.55,0,0,1-.08.36,10.06,10.06,0,0,0-3.24-.11c0-.69,0-1.39,0-2.08,0-.86-.24-1.29-1.18-1.28-5.08.07-10.15.1-15.22.14a5,5,0,0,0-3.21.18l-.27-.29A7.26,7.26,0,0,0,3.49,95.66Z"/>
        <path class="cls-3" d="M68.49,141.56c-2.74-.22-2.76-.22-2.74,2.43,0,1.32.07,2.64.11,4-.83,1,.15,2.09-.08,3.12l-6.73.07-6.48-.09c0-1-.08-2-.11-3l0,0c3.65-.26,3.65-.26,3.27-3.47.31-3.22.31-3.22-2.87-3a3.48,3.48,0,0,0-2.2-.23c-1,0-1.46-.34-1.31-1.31.26-1.67-.56-2.09-2-1.89a7.23,7.23,0,0,1-1.31-.06c0-1.09,0-2.17,0-3.26l0-.13c1.65,0,3.3.08,4.95.05,1.09,0,1.77.34,1.6,1.53-.23,1.57.48,1.91,1.94,1.89,7-.06,14,0,21,0l0,0c0,1.15,0,2.3,0,3.45-.63,0-1.27,0-1.9-.08-.91-.06-1.32.38-1.19,1.24.23,1.61-.46,2-2,2s-1.36-1.07-1.4-2c0-.25-.05-.5-.07-.75S68.73,141.56,68.49,141.56Zm-6.1,3.15c0-.45,0-.89,0-1.33,0-1.18.18-2.2-1.66-2.17s-1.76,1-1.72,2.18a24.46,24.46,0,0,1,0,2.84c-.11,1.32.41,1.75,1.74,1.78s1.78-.54,1.65-1.79A12.68,12.68,0,0,1,62.39,144.71Z"/>
        <path class="cls-3" d="M19.59,183.88c-1.21,0-2.43-.06-3.63,0-1.68.08-3.21.21-2.86-2.31.15-1-.89-.85-1.54-.85-3.25,0-6.5-.07-9.74,0-1.34,0-1.77-.39-1.71-1.72a52.8,52.8,0,0,0,0-6.29c-.12-1.69.57-2,2.07-2,4.77,0,9.54-.06,14.31-.1,1.14.37,2.33.05,3.49.22l-.12,6.39-3.33.13c0-.7,0-1.4,0-2.1,0-.42.13-1-.4-1.15a3,3,0,0,0-2.56.15c-.7.57-.41,1.57-.26,2.34.18,1,1.09.63,1.74.69.5,0,1,0,1.52,0,0,.25,0,.5,0,.75-.11,1.58-.16,3.07,2.21,2.42.6-.16.95.24.93.87C19.67,182.24,19.62,183.06,19.59,183.88Z"/>
        <path class="cls-3" d="M3.47,115.31c.56,0,1.13-.07,1.7-.13,1.12-.14,1.68.27,1.54,1.47s.07,1.91,1.58,1.89,1.85-.53,1.67-1.8.42-1.61,1.63-1.6,1.84.25,1.65,1.59.42,1.79,1.74,1.8,1.6-.62,1.54-1.75c-.05-.72-.23-1.75,1-1.57,2.76.4,2.41-1.36,2.25-3l3.33-.08c3.41.06,3.1-.56,3.07,3-3.07.33-3.07.33-3.11,3.53l-1.13,0c-1.1,0-2.05-.12-2.05,1.56s.95,1.6,2.05,1.55h1.13c0,1.12,0,2.24,0,3.37l-3.22.06H6.69c-1.65-.09-3.76.47-3.25-2.51.12-.67-.53-.91-1.16-.92l-2.07,0,0-3.13C3.65,118.49,3.51,119.18,3.47,115.31Z"/>
        <path class="cls-3" d="M36.4,144.59h4.94c.66,0,1.49,0,1.35-.88-.41-2.48,1.27-2.36,2.84-2.47a7.26,7.26,0,0,0,1.66.17c1.5-.15,2.47.15,2.18,2-.14.86.27,1.28,1.17,1.22.63,0,1.26,0,1.88,0,0,1.14,0,2.28,0,3.42l0,0-3.46,0c-2.6,0-5.19,0-7.78-.08-1.07,0-1.78.05-1.78,1.47s.45,1.85,1.75,1.67,1.81.28,1.63,1.56.21,1.8,1.62,1.81c1.58,0,1.63-.82,1.5-1.91s.44-1.58,1.55-1.47c.5,0,1,0,1.52,0a3.71,3.71,0,0,1,.27,1.27c-.25,1.77.5,2.42,2.21,2.15a7.48,7.48,0,0,1,.95,0l.09,3.11-.58.18a75.09,75.09,0,0,0-9,.12c-1.14-.45-2.36,0-3.51-.3,0-1.66.48-3.66-2.42-3.13-.65.12-.74-.56-.73-1.09Q36.34,149,36.4,144.59Z"/>
        <path class="cls-3" d="M26.19,154.45c.45-3.18.38-3.27-2.75-3.27-7.13,0-14.26,0-21.39,0-1.26,0-2-.1-2-1.69s.91-1.61,2.05-1.6c9.62,0,19.23,0,28.85,0,1.6,0,2.13.45,2,2s.05,3.05.08,4.57L33,157.57a39.43,39.43,0,0,1-6.52,0l0,0Z"/>
        <path class="cls-4" d="M32.62,43.14a7,7,0,0,0,.3-3.42c3.36-.26,3.36-.26,3.47-3v-.45l12.92.06c.4,1.09-.67,2.21,0,3.3.05,1.78.31,3.69-2.56,3.22-.56-.1-.84.48-.85,1.05,0,.76,0,1.52,0,2.28h0L36.06,46C36,43,36,43,33,43.11,32.87,43.11,32.74,43.13,32.62,43.14Z"/>
        <path class="cls-4" d="M23.06,138.06l-16.48,0v-3.27l.17-3.31,3.3.12h9.74l3.19,0c0,1.07,0,2.14.05,3.22Z"/>
        <path class="cls-3" d="M45.91.4A8.42,8.42,0,0,1,46,1.9c-.17,1.33.22,2,1.72,1.84.57-.07,1.5-.15,1.4.76-.34,2.94,1.64,2.41,3.34,2.38,0,.68.06,1.38.11,2.06.09,1-.33,1.45-1.3,1.32-1.47-.2-2.14.33-1.91,1.86.17,1.14-.47,1.4-1.47,1.35A14.69,14.69,0,0,0,46,13.6l-3.12-.26,0,0c-.65-1,.22-2.06,0-3.08,1-.3,2.33.59,3-.57a2.32,2.32,0,0,0-.13-2.53C45.08,6.52,44,6.77,43.17,7c-1,.26-.25,1.18-.35,1.8a6,6,0,0,0,.09,1.51l-3.35-.07c-.05-2.89-.07-5.78-.14-8.66,0-.9.31-1.22,1.2-1.2C42.38.43,44.15.4,45.91.4Z"/>
        <path class="cls-3" d="M16.53,167.48c-5,0-10,0-15,.08-.94,0-1.32-.25-1.38-1.28C-.2,161-.23,161,5,161l5,0,3.27.08c-.15,3.3-.15,3.3,3.09,3.3h.19Z"/>
        <path class="cls-5" d="M29.5,48.83c.09-2.63.09-2.63,3-2.73l.34.28a5,5,0,0,1,0,.95c-.28,1.78.51,2.28,2.22,2.17,2.21-.14,4.43,0,6.64-.06,1.42,0,2.89.42,4.26-.32l.14,0L46,48.9,46,46.16h0l6.55.09c0,1.11,0,2.23,0,3.35-3.18,0-3.18,0-3.16,3l-3.36.07h-13l-3.32,0-.1-.1V48.83Z"/>
        <path class="cls-4" d="M16.53,167.48v-3.17c0-1.07,0-2.15-.05-3.22l9.89-.17.09,3.35-.19,3.29-3.2-.09c-1.08.19-2.25-.34-3.26.42l-3.28,0A1.15,1.15,0,0,1,16.53,167.48Z"/>
        <path class="cls-3" d="M36,76.11l-6.38-.22c-.08-2.7-.08-2.7,2.52-3.07.42-.06.74-.15.66-.67L33,69.06l3.23,0,3.34.15.11,3.67-.17,3.09h0Z"/>
        <path class="cls-5" d="M26.57,59.22a46.47,46.47,0,0,1,0-6.57h3l.1.1c-.23,3.42-.23,3.42,3.12,3.27h3.35l3.19,0a.31.31,0,0,0,.24.08l-.12,3.06a12.54,12.54,0,0,0-3.06.18,63.93,63.93,0,0,0-6.78-.14Z"/>
        <path class="cls-5" d="M.21,121.68l2.07,0c.63,0,1.28.25,1.16.92-.51,3,1.6,2.42,3.25,2.51l.06,2.93c0,.15-.11.3-.16.44-3.75-.08-3-.11-3.07,2.93,0,1.14,0,2.27,0,3.4a.15.15,0,0,1-.1.19c-3.31-.14-3.31-.14-3.3-3.55,0-1.08,0-2.15,0-3.23a9.33,9.33,0,0,1,1.49-.06c1.28.14,1.57-.47,1.58-1.64s-.5-1.53-1.58-1.45a12.46,12.46,0,0,1-1.49-.06Z"/>
        <path class="cls-3" d="M29.57,16.51c0-3.72-.33-3.06,3.07-3.12,2.14,0,4.28-.05,6.42-.08l.41.06H42.9l0,0c0,1.11-.09,2.23-.13,3.35l-12.93.09A3.2,3.2,0,0,0,29.57,16.51Z"/>
        <path class="cls-6" d="M26.22,89c.08-1.08.16-2.15.25-3.23a3.62,3.62,0,0,1,.57,0c2,.39,2.94-.38,2.56-2.49a2.5,2.5,0,0,1,.12-.75l3.14,0c0,.57,0,1.14.07,1.71.15,1.22-.32,1.78-1.59,1.61-1.09-.13-1.76.08-1.72,1.47s.3,2,1.69,1.75c1.21-.17,1.79.3,1.62,1.58a13.78,13.78,0,0,0,0,1.7H26.45l0,0Z"/>
        <path class="cls-3" d="M26.37,160.91l-9.89.18-3.1,0,0-3.2c3.21-.55,6.45,0,9.66-.31l3.46,0,0,0C26.42,158.67,26.4,159.79,26.37,160.91Z"/>
        <path class="cls-3" d="M36.39,36.7c-.11,2.76-.11,2.76-3.47,3l-3.13-.18a6,6,0,0,1,0-1.12C30,36.63,29.2,36,27.52,36.3c-.31,0-.62,0-.93,0a9.61,9.61,0,0,1,0-3.21l3.07,0,3.31,0,0,2.65C33.82,37.38,35.31,36.22,36.39,36.7Z"/>
        <path class="cls-3" d="M39.51,135.05c0,1.76,0,3.53,0,5.29,0,.81-.33,1.23-1.12,1.11s-2.29.49-2.17-.69C36.46,138,34.87,138,33,138c0-1.13,0-2.26,0-3.39l3.06.1C37.15,135.26,38.36,134.8,39.51,135.05Z"/>
        <path class="cls-2" d="M33,157.57l.09-3.09c2.58,0,2.58,0,2.58-2.53,0-2,0-3.93,0-5.9,0-.59-.2-1.34.76-1.46q-.06,4.38-.11,8.76c0,.53.08,1.21.73,1.09,2.9-.53,2.42,1.47,2.42,3.13l0,0H33Z"/>
        <path class="cls-5" d="M39.51,135.05c-1.15-.25-2.36.21-3.49-.3,0-1.07,0-2.14.08-3.21h3.41l3.32.07a10.28,10.28,0,0,0,0,3.18C41.77,135.22,40.62,134.85,39.51,135.05Z"/>
        <path class="cls-2" d="M19.59,183.88c0-.82.08-1.64.1-2.45,0-.63-.33-1-.93-.87-2.37.65-2.32-.84-2.21-2.42,0-.25,0-.5,0-.75l0,0,3.33-.13,3.21.12v3l-.11.12c-1.69,0-3,.35-2.62,2.48A.72.72,0,0,1,19.59,183.88Z"/>
        <path class="cls-2" d="M52.42,144.61c-.62,0-1.25-.05-1.88,0-.9.06-1.31-.36-1.17-1.22.29-1.82-.68-2.12-2.18-2a7.26,7.26,0,0,1-1.66-.17c.64-1,.33-2.12.45-3.19a7.23,7.23,0,0,0,1.31.06c1.47-.2,2.29.22,2,1.89-.15,1,.36,1.32,1.31,1.31a3.48,3.48,0,0,1,2.2.23,4.74,4.74,0,0,0-.29,3Z"/>
        <path class="cls-5" d="M23.09,112.08l-3.33.08c-1.06-.23-2.21.26-3.23-.34,0-1-.05-2.06-.07-3.09l3.39-.08,3.26.14Z"/>
        <path class="cls-6" d="M2.82,112.09c-2.68.18-2.68.18-2.68-2.39,0-1.33,0-2.67,0-4,.69-.36,1.54.08,2.2-.44h.79c0,.24.08.39.33.42l.08,3.06C3.18,109.82,4,111.17,2.82,112.09Z"/>
        <path class="cls-2" d="M33,69.06l-.18,3.08H26.58A2.57,2.57,0,0,1,26.51,69L29.66,69l3.32.11Z"/>
        <path class="cls-6" d="M26.57,59.22l3,0c0,1,.07,1.93.11,2.89-.06,1.18-.11,2.36-.16,3.54v0a7.27,7.27,0,0,1-3,0Z"/>
        <path class="cls-5" d="M26.58,72.13h6.19c.08.53-.24.62-.66.68-2.6.37-2.6.37-2.52,3.07C26.23,76.07,26.23,76.07,26.58,72.13Z"/>
        <path class="cls-6" d="M1.83,85.78c1.47-.34,1.64.46,1.68,1.68.06,1.43-.56,1.63-1.79,1.68C.27,89.2.12,88.57.1,87.35S.49,85.46,1.83,85.78Z"/>
        <path class="cls-4" d="M33,134.65c0,1.13,0,2.26,0,3.39-1.12.07-2.28-.16-3.32.46l-.18-.35c0-1.15,0-2.29,0-3.43l3.45-.05Z"/>
        <path class="cls-6" d="M26.53,2C26.11.41,27,.42,28.18.35,29.53.26,29.68.84,29.7,2S29.42,3.75,28,3.75,26.18,3.25,26.53,2Z"/>
        <path class="cls-6" d="M29.66,33.16l-3.07,0a11.27,11.27,0,0,1,0-3.28l3,0,.12.12Z"/>
        <path class="cls-2" d="M36,76.11l3.48-.19v3.33A15.69,15.69,0,0,1,36,79.09C36,78.1,36,77.1,36,76.11Z"/>
        <path class="cls-5" d="M3.49,95.66a7.26,7.26,0,0,1-.33,3.24H.2c0-.19-.05-.37-.06-.56C0,95.13.21,95,3.49,95.66Z"/>
        <path class="cls-6" d="M3.47,115.31c0,3.87.18,3.18-3.23,3.24a1.16,1.16,0,0,1,0-.18C.18,114.73-.68,115.07,3.47,115.31Z"/>
        <path class="cls-6" d="M26.59,36.32c.31,0,.62,0,.93,0,1.68-.27,2.51.33,2.24,2.12a6,6,0,0,0,0,1.12l-.21.18-3-.12A10.61,10.61,0,0,1,26.59,36.32Z"/>
        <path class="cls-6" d="M16.46,108.73c0,1,0,2.06.07,3.09a6.11,6.11,0,0,1-3.39-.11c0-1,.07-2.07.1-3.11l3.29.12Z"/>
        <path class="cls-5" d="M29.57,16.51a3.2,3.2,0,0,1,.25.27c-.11,1-.23,2.07-.35,3.11L26.6,20a11.88,11.88,0,0,1-.05-3.42l.25-.05Z"/>
        <path class="cls-5" d="M2.82,112.09c1.14-.92.36-2.27.75-3.36l3.11.08,0,2.94C5.41,112.45,4.09,112,2.82,112.09Z"/>
        <path class="cls-5" d="M13.24,108.6c0,1-.07,2.07-.1,3.11a3.16,3.16,0,0,1-3.12.07c0-1,0-2-.07-3Z"/>
        <path class="cls-6" d="M.2,98.9h3l.27.29.06,2.68c-.25,0-.34.17-.33.41H2.37c-.66-.52-1.51-.08-2.2-.44Z"/>
        <path class="cls-4" d="M13.36,157.85c0,1.07,0,2.13,0,3.2l-.13,0L10,160.93a2.15,2.15,0,0,0,.06-.55c-.28-1.88.4-2.79,2.4-2.44A3.68,3.68,0,0,0,13.36,157.85Z"/>
        <path class="cls-3" d="M26.58,26.63l0-3.42,3,0v3.46h0Z"/>
        <path class="cls-2" d="M26.48,157.57l-3.46,0c0-3,0-3,3.17-3.09C26.28,155.49,26.38,156.53,26.48,157.57Z"/>
        <path class="cls-6" d="M10,108.82c0,1,.05,2,.07,3a6,6,0,0,1-3.39,0c0-1,0-2,0-2.94l-.07-.09A9.61,9.61,0,0,1,10,108.82Z"/>
        <path class="cls-6" d="M29.51,23.25l-3,0a11.48,11.48,0,0,1,0-3.26l2.88-.06v0A9.84,9.84,0,0,1,29.51,23.25Z"/>
        <path class="cls-2" d="M16.53,167.85l3.29,0,.12,3,0,0c-1.16-.17-2.35.15-3.49-.22C16.5,169.73,16.52,168.79,16.53,167.85Z"/>
        <path class="cls-5" d="M26.51,65.65a7.27,7.27,0,0,0,3,0L29.66,69,26.51,69Z"/>
        <path class="cls-3" d="M23.06,138.06l0-3.27h3l.32,3.38Z"/>
        <path class="cls-3" d="M3.43,135a.15.15,0,0,0,.1-.19l3.05,0v3.27C3.44,138.22,3.44,138.22,3.43,135Z"/>
        <path class="cls-3" d="M32.62,43.14c.12,0,.25,0,.38,0C36,43,36,43,36.06,46L33,46.2l-.39-.4Z"/>
        <path class="cls-6" d="M42.87,134.79a10.28,10.28,0,0,1,0-3.18l3.12,0,0,3,0,.13Z"/>
        <path class="cls-2" d="M.16,125.05a12.46,12.46,0,0,0,1.49.06c1.08-.08,1.58.25,1.58,1.45s-.3,1.78-1.58,1.64a9.33,9.33,0,0,0-1.49.06Z"/>
        <path class="cls-6" d="M29.51,138.15l.18.35c-.05.91-.09,1.82-.14,2.72l-2.77.22c-.89-1-.25-2.22-.47-3.32l.56-.1Z"/>
        <path class="cls-3" d="M29.52,52.64h-3c0-1-.05-2-.08-3l3-.13Z"/>
        <path class="cls-3" d="M26.57,39.6l3,.12c0,.44,0,.88.05,1.31.1,1.14,0,1.9-1.55,1.89s-1.76-.59-1.61-1.82C26.53,40.6,26.54,40.1,26.57,39.6Z"/>
        <path class="cls-5" d="M26.58,26.63l3,.07,0,3.09-3,0A11.07,11.07,0,0,1,26.58,26.63Z"/>
        <path class="cls-4" d="M42.9,13.36H39.47c.34-.89.71-1.79,0-2.69,0-.15.07-.3.1-.45l3.35.07,0,0C43.12,11.3,42.25,12.33,42.9,13.36Z"/>
        <path class="cls-4" d="M2.37,102.27h.79l.18.34v2.29l-.18.34H2.37c-.76-.69-1.51-.34-2.26,0v-3.06C.86,102.62,1.61,103,2.37,102.27Z"/>
        <path class="cls-2" d="M29.51,49.47l-3,.13c-.62-1.81-.33-3.63-.34-5.75,1.07.81.68,1.67.69,2.38.06,2.62,0,2.62,2.68,2.6C29.51,49,29.51,49.26,29.51,49.47Z"/>
        <path class="cls-2" d="M26.8,16.48l-.25.05V5h.25Z"/>
        <path class="cls-4" d="M26.87,138l-.56.1,0,0c-.11-1.13-.22-2.25-.32-3.38l.39-.11.47.12Z"/>
        <path class="cls-4" d="M26.78,141.44l2.77-.22C28.71,142.35,27.75,142,26.78,141.44Z"/>
        <path class="cls-2" d="M26.4,79.38l-.35-.17a6,6,0,0,1,.43-2.67C26.93,77.75,27.1,78.57,26.4,79.38Z"/>
        <path class="cls-2" d="M39.46,10.68c.72.9.35,1.8,0,2.69l-.41-.06C39.23,12.44,38.73,11.47,39.46,10.68Z"/>
        <path class="cls-3" d="M.11,105.3c.75-.38,1.5-.73,2.26,0-.66.52-1.51.08-2.2.44Z"/>
        <path class="cls-3" d="M2.37,102.27c-.76.7-1.51.35-2.26,0l.06-.41C.86,102.19,1.71,101.75,2.37,102.27Z"/>
        <path class="cls-5" d="M32.6,45.8l.39.4a.27.27,0,0,1-.15.18l-.34-.28A.63.63,0,0,1,32.6,45.8Z"/>
        <path class="cls-4" d="M62.37,85.77V82.44l-.06-.77-.06-2.37h.11l.09.06h6.41l3.4,0c0,1,0,2.06,0,3.09a3.58,3.58,0,0,0,0,3.32c0,3.4-.53,3.17,3.14,3.08,1,.58,2.12.27,3.19.3,0,2.83.07,5.66.15,8.49,0,1.13-.65,1.13-1.48,1.18-1.68.09-3.41-.35-5,.33a3.39,3.39,0,0,0-2-.36l-7.91,0c0-1.06,0-2.11,0-3.17V85.77Z"/>
        <path class="cls-3" d="M75.41,16.59a7,7,0,0,0,1.51.11c1.54-.22,2,.44,1.9,1.91,0,1.16-.38,1.67-1.54,1.5-1.37-.2-1.82.46-1.7,1.74.07.76-.06,1.53,0,2.28.2,1.75-.16,2.88-2.28,2.52-.69-.11-1.08.27-1,1s.08,1.38.13,2.08a1.22,1.22,0,0,1-.33.14l-3.13,0c-3.33-.15-3.33-.15-3.49,3.07,0,.06,0,.12,0,.18-1.9.28-3.56.38-3.16-2.44.16-1.06-.91-.84-1.53-.79-1.24.11-1.94-.25-1.8-1.62a5.2,5.2,0,0,0,0-3.44L59,23.41c3.33-.43,3.33-.43,3.37-3.57,2.2,0,4.41,0,6.61,0,3.18,0,3.18-.05,3.31-3.14A11.1,11.1,0,0,0,75.41,16.59Z"/>
        <path class="cls-3" d="M62.36,98.78l7.91,0a3.39,3.39,0,0,1,2,.36c-.07,1.62-.28,3.3,2.29,2.85.83-.14,1,.47,1,1.21s-.13,1.53.52,2.13a.6.6,0,0,1-.61.36c-2.81-1-3.36-.62-3.27,2.24,0,.25.06.5.09.75,0,1,0,2.08,0,3.12l-3.43-.08a14.79,14.79,0,0,1,0-1.49c.13-1.27-.5-1.57-1.66-1.58s-1.61.37-1.5,1.51a10.64,10.64,0,0,1,0,1.49l-3.32.08,0,0a8.52,8.52,0,0,1,0-1.13c.24-1.56-.38-2.24-2-2-.37.06-.74.08-1.12.12a8.93,8.93,0,0,0-1.71-.06c-1.45.19-1.81-.42-1.83-1.82s.69-1.67,1.87-1.6c1,.06,2,0,3,0,1.18.09,1.72-.23,1.71-1.56S62,102,60.74,102.21c-1.53.24-1.91-.53-1.74-1.87a7.26,7.26,0,0,0,0-1.14C60,98.51,61.25,99,62.36,98.78Zm3.85,6.47,1.14,0c.61.37,1.16.48,1.44-.38.22-2.8.22-2.8-2.58-2.61A1.81,1.81,0,0,0,66.21,105.25Z"/>
        <path class="cls-3" d="M66.32,118.45l2.56.19,0,3-3.49.13c-3.27,0-6.54,0-9.81.09-2.91.07-2.91.11-2.85,3.16l-3.35.06-.24-3.36c.42-1,.07-2.08.27-3.11,1-.29,2.13.16,3.13-.35,3.22.58,3.3.51,3.3-2.72,0-3.6,0-3.6,3.51-3.79h3.07l0,0c0,1.16,0,2.31,0,3.47a16.21,16.21,0,0,1-1.71,0C59.25,115,59,115.71,59,117s.4,1.65,1.65,1.64,2-.26,1.77-1.68a13.9,13.9,0,0,1,0-1.71l3.3.11c0,.22,0,.44.07.66C65.6,116.88,64.62,118,66.32,118.45Z"/>
        <path class="cls-3" d="M78.67,164.34c0,.75.07,1.51.1,2.27,0,.58-.18,1.1-.82,1-2.61-.36-2.55,1.23-2.28,3l-.29.29H72.3a.85.85,0,0,1-.31-.09,2.78,2.78,0,0,0,.28-1.45c.13-1.26-.13-1.94-1.68-1.94s-1.87.63-1.69,1.92c.06.49.15,1,.23,1.46a.77.77,0,0,1-.29.1H59.16a.66.66,0,0,1-.31-.09,9.49,9.49,0,0,0,.06-3.36c3.48.14,3.48.14,3.51-3l13.11-.09Z"/>
        <path class="cls-3" d="M75.57,59.55c-.24,3-.24,3-3.25,3-.82,0-1.64,0-2.46-.08s-1.53.25-1.36,1.28c.27,1.71-.61,2.07-2.07,1.9a3.9,3.9,0,0,0-1.11.15c-1.19,0-2.38,0-3.57-.06C59,65.75,59,65.76,59,63c1-.45,2.55.74,3.25-.92l0-2.17.12-.81h6.49c1.09.72,2.19.28,3.29,0h3.16Z"/>
        <path class="cls-3" d="M75.35,3.8a10.67,10.67,0,0,1,3.43.06c0,2.45-.13,4.91,0,7.35.13,1.83-.46,2.55-2.27,2.27a2.36,2.36,0,0,0-.74.1,10.61,10.61,0,0,0-3.42-.09c-3.18-.3-3.18-.3-3.2-3.25,2.75-.12,2.75-.12,3-3.3a7.29,7.29,0,0,1,1.32,0c1.59.23,2.2-.45,2-2C75.39,4.55,75.38,4.18,75.35,3.8Z"/>
        <path class="cls-6" d="M75.35,49.43l-6.43.2a55.06,55.06,0,0,0-6.55,0c0-1.12.05-2.25.08-3.37l6.5-.18a10.61,10.61,0,0,0,3.28,0l3.22.15-.06,3-.11.09Z"/>
        <path class="cls-3" d="M75.38,180.43l-3.46.21a12.92,12.92,0,0,0-1.52,0c-1.14.12-1.6-.33-1.54-1.5,0-1-.07-1.93,1.42-1.79,2.49.22,1.84-1.57,1.83-2.93.06-.15.13-.29.19-.43h3.17l3.22.08c0,1.08,0,2.16,0,3.23-3.18.27-3.18.27-3.39,3.19Z"/>
        <path class="cls-3" d="M62.37,49.61a55.06,55.06,0,0,1,6.55,0l0,2.09c0,.5.2,1,.74.9,3-.52,2.64,1.55,2.61,3.37l0,.11-3.41,0-3.25-.27c.15-3,.15-3-2.76-3.11-.19,0-.38-.06-.57-.08,0-1,0-2,0-3Z"/>
        <path class="cls-4" d="M72.29,148c1.65,0,3.3,0,4.94,0,1.11-.05,1.64.26,1.58,1.48-.1,1.7-.07,3.41-.09,5.12l-3.26-.06-3.23-.13c0-1.06,0-2.13.07-3.19Z"/>
        <path class="cls-4" d="M72.31,111.84c0-1,0-2.08,0-3.12l3.26,0,3.12-.09c0,1.77,0,3.55.09,5.31,0,1-.39,1.34-1.35,1.31-1.71,0-3.42,0-5.13,0C72.31,114.09,72.31,113,72.31,111.84Z"/>
        <path class="cls-3" d="M78.65,89.18c-1.07,0-2.17.28-3.19-.3-.15-3.31.71-3.09-3.14-3.08a3.58,3.58,0,0,1,0-3.32l3.06-.11c3.39.21,3.4.21,3.38,3.61C78.76,87.05,78.69,88.11,78.65,89.18Z"/>
        <path class="cls-6" d="M75.62,125.19c0,.84-.07,1.69-.11,2.54-1,1-2.12.45-3.22.45l-.18-3c.08-1.15.15-2.3.23-3.45h0c3.18,0,3.18,0,3-3.07l-.05-.09,3.43.15c0,1,0,2,0,3-.25,0-.5.07-.75.08-2.59.11-2.59.11-2.5,2.72A4.93,4.93,0,0,0,75.62,125.19Z"/>
        <path class="cls-4" d="M65.32,65.82a3.9,3.9,0,0,1,1.11-.15c1.46.17,2.34-.19,2.07-1.9-.17-1,.46-1.32,1.36-1.28s1.64,0,2.46.08c-.19,2.74-.19,2.74,2.5,2.75h2.85c.51,0,1.06,0,1.06.74L70.21,66c-.57,0-1.37,0-1.25.74.42,2.88-1.52,2.38-3.18,2.32C65.12,68,65.78,66.85,65.32,65.82Z"/>
        <path class="cls-3" d="M75.45,46.19,72.23,46c0-1.1,0-2.2.07-3.3l3.16,0a8.77,8.77,0,0,0,3.27,0l0,3.43Z"/>
        <path class="cls-2" d="M72.23,154.38l3.23.13c-.07,3.45-.07,3.45,3.32,3l0,3.58-3.4-.08,0,0a.47.47,0,0,0,.13-.34s.1-.1.09-.14a2.85,2.85,0,0,0-.12-.31c.29-2.05-.63-2.84-2.63-2.56a1.79,1.79,0,0,1-.55-.08V154.5Z"/>
        <path class="cls-6" d="M72.39,72.89c2.12.14,4.23-.4,6.34,0,0,1,0,2,0,3L74.93,76H72.29v-.12A7.92,7.92,0,0,1,72.39,72.89Z"/>
        <path class="cls-3" d="M72.29,128.18c1.1,0,2.26.51,3.22-.45.95.75,2.4-.35,3.22.87-3.27-.31-3.26-.31-3.35,2.85,0,.07,0,.13,0,.19l0,0H72.3l0-3.47Z"/>
        <path class="cls-5" d="M75.57,59.55c-.06-.14-.13-.28-.19-.43,0-1,0-2,0-3.08,2.91-.68,3.44-.35,3.42,2,0,1-.26,1.54-1.37,1.46A13,13,0,0,0,75.57,59.55Z"/>
        <path class="cls-3" d="M74.93,76l3.79-.15a2.52,2.52,0,0,1,0,.37c0,3,0,3-3,3.11l-.09-.07-.1,0-.21-2.64c0-.26-.12-.37-.36-.38A.26.26,0,0,1,74.93,76Z"/>
        <path class="cls-3" d="M75.47,183.82l-.09-3.39,0,0,3.36.15C78.77,184.41,79.35,183.88,75.47,183.82Z"/>
        <path class="cls-2" d="M72.31,111.84c0,1.12,0,2.25,0,3.37-4,0-3.41.58-3.44-3.45Z"/>
        <path class="cls-2" d="M78.69,36.09c0,1.22,0,2.44.08,3.66a11.88,11.88,0,0,0-3.42-.09h0c0-1.14,0-2.29,0-3.43A7.12,7.12,0,0,0,78.69,36.09Z"/>
        <path class="cls-3" d="M78.68,134.77l0,3.32H75.36l0,0v-3.43Z"/>
        <path class="cls-4" d="M68.85,121.67l0-3a4.77,4.77,0,0,1,3.43,0l0,3.13H68.9Z"/>
        <path class="cls-5" d="M75.36,138.09h3.35c0,1.13,0,2.27,0,3.41l-3.36,0h0C75.37,140.39,75.36,139.24,75.36,138.09Z"/>
        <path class="cls-4" d="M65.65,115.32l-3.3-.11,0,0c0-1.16,0-2.31,0-3.47l3.32-.08A13.37,13.37,0,0,1,65.65,115.32Z"/>
        <path class="cls-6" d="M75.49,29.9c3.46-.39,3.46-.39,3.19,3.21l-3,0A10,10,0,0,1,75.49,29.9Z"/>
        <path class="cls-6" d="M75.36,161l3.4.08-.09,3.25-3.14,0C75.47,163.24,75.42,162.12,75.36,161Z"/>
        <path class="cls-5" d="M75.45,46.19l3.25-.07c0,1.15,0,2.31,0,3.46a11,11,0,0,1-3.33-.37Z"/>
        <path class="cls-5" d="M78.69,174,75.47,174l-.09-3,.29-.29C79,170.58,79,170.58,78.69,174Z"/>
        <path class="cls-6" d="M78.71,108.61l-3.12.09c0-1-.06-2-.08-3a.6.6,0,0,0,.61-.36C78.87,105.34,78.87,105.34,78.71,108.61Z"/>
        <path class="cls-5" d="M75.62,125.19a4.93,4.93,0,0,1-.14-.73c-.09-2.61-.09-2.61,2.5-2.72.25,0,.5,0,.75-.08C78.87,125,78.87,125,75.62,125.19Z"/>
        <path class="cls-2" d="M72.38,13.49a10.61,10.61,0,0,1,3.42.09l-.39,3a11.1,11.1,0,0,1-3.1.12C72.34,15.64,72.36,14.56,72.38,13.49Z"/>
        <path class="cls-3" d="M75.39,49.21a11,11,0,0,0,3.33.37c0,.38,0,.76,0,1.14,0,1.1.18,2.05-1.55,2.06s-2-.65-1.83-2a8.36,8.36,0,0,0,0-1.32l-.07-.13Z"/>
        <path class="cls-3" d="M78.78,157.51c-3.39.45-3.39.45-3.32-3l3.26.06Z"/>
        <path class="cls-5" d="M75.49,29.9a10,10,0,0,0,.15,3.18,1.1,1.1,0,0,0-.32.11H72.37a1.21,1.21,0,0,0-.32-.11,6.66,6.66,0,0,0,0-3.2,1.22,1.22,0,0,0,.33-.14Z"/>
        <path class="cls-2" d="M72.29,148c0,1.06,0,2.12,0,3.18H68.83v-.08c0-1,0-2.07.07-3.1Z"/>
        <path class="cls-6" d="M75.37,131.64c0-.06,0-.12,0-.19.09-3.16.08-3.16,3.35-2.85,0,1,0,2,0,2.93Z"/>
        <path class="cls-6" d="M75.35,39.66a11.88,11.88,0,0,1,3.42.09c0,1,0,2,0,2.94a8.77,8.77,0,0,1-3.27,0C75.42,41.7,75.39,40.68,75.35,39.66Z"/>
        <path class="cls-3" d="M75.64,33.08l3,0c0,1,0,2,0,3a7.16,7.16,0,0,1-3.35.14l0,0-.06-3.06A1.1,1.1,0,0,1,75.64,33.08Z"/>
        <path class="cls-3" d="M75.36,141.53l3.36,0c0,.38,0,.75,0,1.12.08,1.2.12,2.12-1.66,2.11s-1.79-.84-1.71-2.08A10.48,10.48,0,0,0,75.36,141.53Z"/>
        <path class="cls-2" d="M78.71,180.61l-3.36-.15c.21-2.92.21-2.92,3.39-3.19Z"/>
        <path class="cls-5" d="M75.37,131.64l3.34-.11,0,3.24-3.3-.09h0c0-1,0-2,0-3.06Z"/>
        <path class="cls-2" d="M75.56,79.32l.1,0,.09.07c.18,1-.35,2-.37,3l-3.06.11c0-1,0-2.06,0-3.09l.07-.07Z"/>
        <path class="cls-5" d="M68.91,148c0,1,0,2.07-.07,3.1l-3.06,0c.23-1-.75-2.1.08-3.12Z"/>
        <path class="cls-3" d="M72.33,121.72l0-3.13a8.5,8.5,0,0,1,3.06.06C75.51,121.73,75.51,121.73,72.33,121.72Z"/>
        <path class="cls-6" d="M75.39,56c0,1,0,2.05,0,3.08H72.22l.12-3,0-.11Z"/>
        <path class="cls-4" d="M78.75,118.71l-3.43-.15C76.51,117.6,77.66,117.47,78.75,118.71Z"/>
        <path class="cls-4" d="M66.32,118.45c-1.7-.45-.72-1.57-.6-2.47C66.5,116.66,65.85,117.7,66.32,118.45Z"/>
        <path class="cls-2" d="M68.49,141.56c.24,0,.34.12.31.36Z"/>
        <path class="cls-3" d="M59.36,174.08a71.12,71.12,0,0,0-.13,8.13c0,1.1-.11,1.84-1.51,1.69-1-.11-2.29.25-2-1.53.18-1.2-.3-1.83-1.57-1.65s-1.74-.5-1.65-1.75c.11-1.63.1-3.27.14-4.91l6.56-.11.15,0Z"/>
        <path class="cls-4" d="M42.89,170.88c0,1,0,2.05,0,3.08l-.3.07L39.46,174,36,174c0-1.57,0-3.14,0-4.71.06-1.23-.24-2-1.64-1.75s-2-.38-1.8-1.79a8.42,8.42,0,0,0-.07-1.5.29.29,0,0,1,.25-.19,3.82,3.82,0,0,0,.75,0c1.82-.21,3.18.07,2.8,2.42-.11.72.36,1,1.05,1l2.08-.07,3.1.2Z"/>
        <path class="cls-3" d="M46.09,174c3.26-.11,3.26-.11,3.26,3.1,0,1.7-.09,3.41,0,5.11.09,1.38-.46,1.8-1.74,1.63a12.83,12.83,0,0,0-1.52,0c-3.11,0-3.11,0-3.52-3,.45-1.14,0-2.35.29-3.5,2.94-.08,2.94-.08,3.14-3A2.41,2.41,0,0,1,46.09,174Z"/>
        <path class="cls-3" d="M26.49,183.86v-3.43l0,0h3.07l9.91.12a.2.2,0,0,0,.1.27c-.1,3-.1,3-3.18,3Z"/>
        <path class="cls-6" d="M59.36,174.08l0-.15-.15,0c0-1,0-2,0-3h9.68c0,1,0,2,0,3.06Z"/>
        <path class="cls-3" d="M42.89,170.88c-.1-1.09-.19-2.17-.29-3.26a.64.64,0,0,0,.3-.17l3,0,3.47.06c0,1.12-.11,2.25-.16,3.37Z"/>
        <path class="cls-5" d="M59.16,170.93c0,1,0,2,0,3l-6.56.11-.15-3.14h0l3.39-.21a10.84,10.84,0,0,0,3,.13A.66.66,0,0,0,59.16,170.93Z"/>
        <path class="cls-3" d="M63.81,177.25c1.34-.21,2,.12,2,1.57,0,1.29-.24,2-1.77,2-1.36,0-1.79-.45-1.7-1.76C62.4,177.92,62.23,176.79,63.81,177.25Z"/>
        <path class="cls-2" d="M39.53,180.84a.2.2,0,0,1-.1-.27c0-1,0-2.08,0-3.11l.14-.14,3.37.09,0,0c-.26,1.15.16,2.36-.29,3.5Z"/>
        <path class="cls-5" d="M68.89,174c0-1,0-2,0-3.06a.67.67,0,0,0,.28-.1H72a.85.85,0,0,0,.31.09v3c-.06.14-.13.28-.19.43C71.06,174,69.91,174.59,68.89,174Z"/>
        <path class="cls-2" d="M49.24,170.83c0-1.12.11-2.25.16-3.37l0,0,3.08.18v3.25h0Z"/>
        <path class="cls-2" d="M46.09,174a2.41,2.41,0,0,0-.07.37c-.2,2.9-.2,2.9-3.14,3l0,0L42.64,174l.3-.07Z"/>
        <path class="cls-4" d="M72.38,13.49c0,1.07,0,2.15-.07,3.22-.13,3.09-.13,3.1-3.31,3.14-2.2,0-4.41,0-6.61,0L58.88,20l-2.89,0-.11-3.15a15,15,0,0,0-.19-3.47.11.11,0,0,1,.17,0h9.86c1.9.27,3.27,0,2.88-2.46,0-.33.24-.57.58-.65C69.2,13.19,69.2,13.19,72.38,13.49Z"/>
        <path class="cls-3" d="M55.88,16.77c0,1.05.08,2.1.11,3.15,0,2.26-.1,4.53-.11,6.79,0,3.26,0,3.26-3.44,3.05,0-1,0-2.06,0-3.08,0-1.39,0-2.78,0-4.16,0-3-.21-3.12-3.18-2.31A6.39,6.39,0,0,0,46.17,20a1.2,1.2,0,0,1-.32-.16l.12-3v0l6.45-.2Z"/>
        <path class="cls-3" d="M62.32.42l0,3.41,0,0c-3.31-.19-3.31-.19-3.37,3.1-3.21.11-3.21.11-3.21-3,0-3.51,0-3.51,3.46-3.51C60.29.39,61.3.41,62.32.42Z"/>
        <path class="cls-3" d="M62.36,3.83a44.35,44.35,0,0,1,6.52,0c0,1,0,2.05,0,3.08l-6.51,0V3.8Z"/>
        <path class="cls-2" d="M68.9,6.88c0-1,0-2,0-3.08l0,0a41.74,41.74,0,0,1,6.52,0l0,0c0,.38,0,.75.09,1.13.24,1.54-.37,2.22-2,2a7.29,7.29,0,0,0-1.32,0Z"/>
        <path class="cls-2" d="M55.88,16.77l-3.47-.16c.11-3.75-.16-3.13,3.28-3.31A15,15,0,0,1,55.88,16.77Z"/>
        <path class="cls-2" d="M42.75,16.69c0-1.12.09-2.24.13-3.35L46,13.6c0,1.07,0,2.14,0,3.21v0Z"/>
        <path class="cls-2" d="M62.39,3.8V6.86L59,6.9C59.08,3.61,59.08,3.61,62.39,3.8Z"/>
        <path class="cls-3" d="M65.72,13.35H62.33c0-.32,0-.63,0-.95,0-1.09-.36-2.25,1.57-2.27s1.92.95,1.84,2.27C65.72,12.71,65.73,13,65.72,13.35Z"/>
        <path class="cls-3" d="M52.46,3.44c-3.29.35-3.31.33-3-3C52.42.37,52.42.37,52.46,3.44Z"/>
        <path class="cls-3" d="M59.13,13.35H55.86c0-.38,0-.76,0-1.14-.11-1.2,0-2,1.63-2s1.76.75,1.65,2A8.75,8.75,0,0,0,59.13,13.35Z"/>
        <path class="cls-3" d="M75.38,3.83a41.74,41.74,0,0,0-6.52,0c0-1.13.06-2.27.1-3.4l6.39,0Z"/>
        <path class="cls-3" d="M23.06,180.41v-3l3.31,0,.07,0v3.05l0,0A10.07,10.07,0,0,1,23.06,180.41Z"/>
        <path class="cls-1" d="M65.32,65.82c.46,1-.2,2.22.46,3.22-.27,3-.27,3-3.33,3-2.54,0-5.09-.12-7.62,0-1.85.11-2.57-.5-2.3-2.32a2.44,2.44,0,0,0-.09-.75c.05-1,.09-2,.14-3a7.76,7.76,0,0,1,1.51-.17c1.25.1,1.86-.25,1.83-1.68,0-1.26-.29-1.94-1.7-1.75s-1.67-.57-1.54-1.72c.06-.51.12-1,.19-1.51L59,59.16l2.92.08.37.69,0,2.17-2.09.11c-.54,0-1.24-.12-1.16.81-.07,2.74-.07,2.73,2.71,2.74C62.94,65.77,64.13,65.8,65.32,65.82Z"/>
        <path class="cls-1" d="M42.83,98.77c0-.75,0-1.5,0-2.24,0-.57-.24-1.1-.84-1-2.86.49-2.59-1.38-2.47-3.17l6.49,0,3.14,0c.9.65,1.91.23,2.87.32,1,.79.15,2,.66,2.86-.47,1.06.22,2.32-.59,3.32l-6,.09Z"/>
        <path class="cls-5" d="M32.92,92.3a13.78,13.78,0,0,1,0-1.7c.17-1.28-.41-1.75-1.62-1.58-1.39.2-1.66-.49-1.69-1.75s.63-1.6,1.72-1.47c1.27.17,1.74-.39,1.59-1.61-.07-.57,0-1.14-.07-1.71.58,0,1.15,0,1.72,0,1.24-.12,1.75.47,1.74,1.65,0,.76,0,1.52,0,2.28-.12,1.6-.06,3,2.19,2.61.74-.12,1,.41,1,1.08s0,1.52,0,2.28Z"/>
        <path class="cls-2" d="M62.37,85.77v6.57l-6.49,0,0,0c0-2.16,0-4.33,0-6.49l0,0Z"/>
        <path class="cls-4" d="M39.45,79.25V75.92h3.14c3.54.17,3.32-.59,3.36,3.4,0,1,0,2,0,3.07-1.39,0-2.8-.07-4.18.08-1.79.19-2.65-.37-2.33-2.26A6,6,0,0,0,39.45,79.25Z"/>
        <path class="cls-6" d="M59.09,76.16a7.86,7.86,0,0,0-3.31-.08l-3-.11c-.79-2.82-.6-3.09,2.2-3.09H65.51l.12,3-3.37.18A9.37,9.37,0,0,0,59.09,76.16Z"/>
        <path class="cls-5" d="M49.13,92.33l-3.14,0c0-.5,0-1,0-1.51.14-1.22-.35-1.73-1.6-1.63-.66.06-1.53.23-1.73-.7-.16-.77-.4-1.73.28-2.33s1.68-.33,2.54-.21a.6.6,0,0,1,.44.74c-.4,2.54,1.29,2.38,2.93,2.29l.57,0h0Z"/>
        <path class="cls-5" d="M49.3,69l-3.36.08L42.75,69l-.06-3.13,3.25-.2,3.43.06Z"/>
        <path class="cls-1" d="M42.75,69l3.19.15c0,1,0,2-.07,2.94-.67,0-1.35,0-2,0s-1.33-.16-1.24.85l-.08-.06-2.9,0c0-1.23-.07-2.45-.11-3.67Z"/>
        <path class="cls-5" d="M65.63,75.9l-.12-3,3.37-.11,3.17,0a1,1,0,0,0,.34.1,7.92,7.92,0,0,0-.11,3L68.9,76Z"/>
        <path class="cls-1" d="M59.09,76.16a9.37,9.37,0,0,1,3.17-.08c.07,1.09.13,2.18.2,3.27l-.09-.06H59.24A13.13,13.13,0,0,1,59.09,76.16Z"/>
        <path class="cls-2" d="M52.47,85.83a9.7,9.7,0,0,0,0-1.32c-.11-1.33.14-2.08,1.81-2.09s1.51,1,1.51,2.1c0,.45,0,.89,0,1.33l0,0-3.44,0Z"/>
        <path class="cls-2" d="M52.82,76l3,.11c0,.31.06.62.08.94.08,1.3.19,2.43-1.83,2.34s-1.46-1.43-1.5-2.51A2.76,2.76,0,0,1,52.82,76Z"/>
        <path class="cls-6" d="M49.3,69c0-1.11.05-2.22.07-3.34,1.07.17,2.21-.29,3.21.4,0,1-.09,2-.14,3Z"/>
        <path class="cls-2" d="M46,82.38c0-1,0-2,0-3.07a15,15,0,0,0,1.5,0c1.27-.14,1.94.14,1.92,1.68s-.83,1.56-1.91,1.49C47,82.42,46.46,82.41,46,82.38Z"/>
        <path class="cls-2" d="M72.05,72.79l-3.17,0c.09-.83.18-1.67.26-2.5a1,1,0,0,0,1-1,3.42,3.42,0,0,1,1.74,0,7.11,7.11,0,0,1,.47,2.81Z"/>
        <path class="cls-2" d="M59.24,79.29h3l.06,2.37c-.47,0-.67.26-.69.7C59,82.6,58.68,82.2,59.24,79.29Z"/>
        <path class="cls-1" d="M72.32,72.08a7.11,7.11,0,0,0-.47-2.81c.55-.06,1.1-.15,1.66-.18,1-.06,1.95-.16,1.95,1.44s-.67,1.66-1.83,1.56A11.43,11.43,0,0,0,72.32,72.08Z"/>
        <path class="cls-2" d="M39.63,72.83l2.9,0,.06,3H39.46C39.52,74.89,39.57,73.86,39.63,72.83Z"/>
        <path class="cls-5" d="M49.43,88.94c0-.32,0-.63-.08-.94-.29-1.74.42-2.47,2.17-2.19a6,6,0,0,0,.95,0l0,0,0,3.23-3-.1Z"/>
        <path class="cls-4" d="M42.61,72.94c-.09-1,.66-.82,1.24-.85s1.35,0,2,0c.06,1-.69.79-1.25.82S43.28,72.91,42.61,72.94Z"/>
        <path class="cls-1" d="M61.63,82.37c0-.44.22-.7.69-.7l.06.77Z"/>
        <path class="cls-1" d="M70.11,69.29a1,1,0,0,1-1,1C69.08,69.55,69.32,69.15,70.11,69.29Z"/>
        <path class="cls-2" d="M23.11,108.79l-3.26-.14,0-3.4h3.27c3.38.42,3.38.42,3.21-2.91a1.55,1.55,0,0,0,.08-.36c.1-3.14.1-3.14,3.24-3.15a7,7,0,0,1,0,1.12c-.23,1.65.3,2.42,2.12,2.22a36.49,36.49,0,0,1,4.31,0l0,0a9.81,9.81,0,0,1,0,3.06c-1,0-2,.07-3,.08-3.37,0-3.37,0-3.45,3.33l-3.19.08A10.09,10.09,0,0,0,23.11,108.79Z"/>
        <path class="cls-1" d="M6.64,99c5.07,0,10.14-.07,15.22-.14.94,0,1.22.42,1.18,1.28,0,.69,0,1.39,0,2.08H23l-3.13.07c-.69-.06-1.38-.17-2.07-.18-3.6,0-7.2,0-10.8-.07Z"/>
        <path class="cls-5" d="M42.83,98.77l3.23.15c0,1.1-.05,2.2-.07,3.3l-3.22,0H36l0,0A7.82,7.82,0,0,0,36,98.83Z"/>
        <path class="cls-6" d="M36,98.83A7.82,7.82,0,0,1,36,102.2a36.49,36.49,0,0,0-4.31,0c-1.82.2-2.35-.57-2.12-2.22a7,7,0,0,0,0-1.12L33,98.77l3,.07Z"/>
        <path class="cls-2" d="M26.45,92.3H33c0,.12-.05.25-.06.37-.1,3.16-.1,3.16-3.28,2.88-.46-.78.68-2.35-1.15-2.44-2-.11-.91,1.6-1.35,2.42l-.73.21Z"/>
        <path class="cls-6" d="M26.45,92.3l-.06,3.43a.61.61,0,0,0-.18,0c-3.14-.08-3.14-.08-3.18-3.29l3.45,0Z"/>
        <path class="cls-4" d="M26.48,92.34l-3.45,0c0-.13,0-.25,0-.38,0-3.19,0-3.19,3.18-3C26.31,90.09,26.39,91.22,26.48,92.34Z"/>
        <path class="cls-2" d="M6.64,99,7,102l-3.07.07-.43-.24-.06-2.68A5,5,0,0,1,6.64,99Z"/>
        <path class="cls-6" d="M26.3,102.34c.17,3.33.17,3.33-3.21,2.91,0-1-.07-2-.1-3h.07A10.06,10.06,0,0,1,26.3,102.34Z"/>
        <path class="cls-2" d="M36,98.84l-3-.07c0-.38,0-.76-.05-1.13-.08-1.16,0-2,1.6-2s1.57,1,1.54,2.08C36.07,98.09,36,98.46,36,98.84Z"/>
        <path class="cls-4" d="M27.12,95.52c.44-.82-.67-2.53,1.35-2.42,1.83.09.69,1.66,1.15,2.44A3.83,3.83,0,0,1,27.12,95.52Z"/>
        <path class="cls-5" d="M75.38,134.68v3.43c-7,0-14,0-21,0-1.46,0-2.17-.32-1.94-1.89.17-1.19-.51-1.54-1.6-1.53-1.65,0-3.3,0-4.95-.05l0-3,3.29-.09,3.16,0,.11.11c-.12,3.12-.12,3.12,3,3l.37,0,3.3,0h6.6l3.11,0,3.37.07a8.83,8.83,0,0,0,3.16,0Z"/>
        <path class="cls-6" d="M65.78,151.07l3.06,0v.08l.18,3.44L69,157.54a39.67,39.67,0,0,1-6.63,0c0-.69,0-1.39,0-2.08,0-.29-.18-.82-.26-.82a10.93,10.93,0,0,0-2.75.27c-.57.17-.07.88-.15,1.34a6.47,6.47,0,0,0,0,1.32l-3.33,0c0-.5,0-1,0-1.52-.13-1.19.25-1.87,1.56-1.65s1.77-.47,1.61-1.72a9.71,9.71,0,0,1,.06-1.52Z"/>
        <path class="cls-5" d="M59.05,151.14a9.71,9.71,0,0,0-.06,1.52c.16,1.25-.17,2-1.61,1.72s-1.69.46-1.56,1.65c0,.5,0,1,0,1.52l-3,0a1.15,1.15,0,0,0-.26,0l-.09-3.11c0-1.14.08-2.27.13-3.41Z"/>
        <path class="cls-2" d="M62.39,144.71a12.68,12.68,0,0,0,0,1.51c.13,1.25-.25,1.82-1.65,1.79s-1.85-.46-1.74-1.78a24.46,24.46,0,0,0,0-2.84c0-1.22,0-2.16,1.72-2.18s1.71,1,1.66,2.17C62.38,143.82,62.39,144.26,62.39,144.71Z"/>
        <path class="cls-2" d="M52.57,151.05c0,1.14-.09,2.27-.13,3.41a7.48,7.48,0,0,0-.95,0c-1.71.27-2.46-.38-2.21-2.15a3.71,3.71,0,0,0-.27-1.27c0-1,0-2,0-3l3.46,0C52.49,149,52.53,150,52.57,151.05Z"/>
        <path class="cls-2" d="M52.43,148c0-1.14,0-2.28,0-3.42l.12-.12,3.16.07C56.08,147.77,56.08,147.77,52.43,148Z"/>
        <path class="cls-1" d="M55.7,144.56l-3.16-.07a4.74,4.74,0,0,1,.29-3C56,141.34,56,141.34,55.7,144.56Z"/>
        <path class="cls-4" d="M26.37,177.45l-3.31,0-3.21-.12.12-6.39,0,0c1-.12,2.15.19,3.13-.39,1,.62,2.13.36,3.21.31l.19,3.29C26.44,175.23,26.4,176.34,26.37,177.45Z"/>
        <path class="cls-2" d="M16.54,177.39c-.51,0-1,0-1.52,0-.65-.06-1.56.29-1.74-.69-.15-.77-.44-1.77.26-2.34a3,3,0,0,1,2.56-.15c.53.12.39.73.4,1.15,0,.7,0,1.4,0,2.1Z"/>
        <path class="cls-6" d="M23.11,108.79a10.09,10.09,0,0,1,3.29,0,3.7,3.7,0,0,1,0,.94c-.33,1.83.57,2.25,2.22,2.12,1.37-.11,2.76,0,4.14,0,0,1.09.07,2.18.1,3.27l-6.48.1a1,1,0,0,0-.25-.16c0-3.59.34-3-3.07-3C23.1,111,23.11,109.89,23.11,108.79Z"/>
        <path class="cls-2" d="M23,125.07l0-3.37,0,0,3.36.12c0,1,0,2.08,0,3.13l-3.21.11Z"/>
        <path class="cls-2" d="M26.16,115.11a1,1,0,0,1,.25.16c0,3.18,0,3.18-3.2,3.32l-.19,0,0,0C23.09,115.44,23.09,115.44,26.16,115.11Z"/>
        <path class="cls-6" d="M6.75,128.08l-.06-2.93H10c0,1,0,2-.07,3A7.48,7.48,0,0,1,6.75,128.08Z"/>
        <path class="cls-6" d="M13.23,125.14h3.3c0,1,0,2-.07,3a8.56,8.56,0,0,1-3.15,0Z"/>
        <path class="cls-5" d="M16.46,128.16c0-1,.05-2,.07-3h3.28l-.09,3.12-3,.05A.94.94,0,0,0,16.46,128.16Z"/>
        <path class="cls-6" d="M19.72,128.25l.09-3.12,3.22-.06h.1c-.05,1-.09,2.06-.14,3.09l-3.12.15Z"/>
        <path class="cls-5" d="M13.23,125.14l.08,3a1.29,1.29,0,0,0-.33.17H10.2a1.11,1.11,0,0,0-.29-.14c0-1,.05-2,.07-3Z"/>
        <path class="cls-4" d="M23.05,121.7H21.92c-1.1.05-2.05.13-2.05-1.55s.95-1.6,2.05-1.56l1.13,0,0,0v3.1Z"/>
        <path class="cls-1" d="M43,157.87a75.09,75.09,0,0,1,9-.12l.54.56c0,.87-.09,1.73-.13,2.59-3,.16-3,.16-3.11,3.14,0,.13,0,.25-.06.37L46.08,164c-.14-3-.14-3-3.2-3.1Z"/>
        <path class="cls-1" d="M49,148.05c0,1,0,2,0,3-.51,0-1,.07-1.52,0-1.11-.11-1.69.25-1.55,1.47s.08,1.93-1.5,1.91c-1.41,0-1.79-.58-1.62-1.81s-.42-1.73-1.63-1.56-1.75-.31-1.75-1.67.71-1.49,1.78-1.47C43.81,148,46.4,148,49,148.05Z"/>
        <path class="cls-2" d="M43,157.87c0,1,0,2-.07,3.06l0,3.42v3.1a.64.64,0,0,1-.3.17l-3.1-.2a.47.47,0,0,1,.22-.2c.3-.22.3-.43,0-.64a4.3,4.3,0,0,1,0-2.08,3.34,3.34,0,0,1,.76-.06c2.14.36,1.75-1.41,1.85-2.44.13-1.46-1.19-.84-1.95-1a3.14,3.14,0,0,0-.75,0l-.13-3.47,0,0C40.59,157.85,41.81,157.42,43,157.87Z"/>
        <path class="cls-4" d="M52.49,158.31l-.54-.56.58-.18a1.15,1.15,0,0,1,.26,0A.71.71,0,0,1,52.49,158.31Z"/>
        <path class="cls-2" d="M32.82,164a.29.29,0,0,0-.25.19l-6.11,0-.09-3.35c0-1.13.05-2.25.08-3.38a39.43,39.43,0,0,0,6.52,0l0,0Q32.88,160.8,32.82,164Z"/>
        <path class="cls-1" d="M52.44,29.76c3.43.21,3.42.21,3.44-3.05,0-2.26.07-4.53.11-6.79l2.89,0c0,1.15.09,2.3.14,3.45L59,24.79a3.32,3.32,0,0,0,0,3.44c-.14,1.37.56,1.73,1.8,1.62.62-.05,1.69-.27,1.53.79-.4,2.82,1.26,2.72,3.16,2.44l3,.17c.12.23.24.47.35.7,0,1.65,0,3.31,0,5l-.34.37-.8.31-1.78-.05a5.29,5.29,0,0,1-.15-1.11c.08-1.3.08-2.24-1.79-2.22s-1.65,1-1.63,2.18a10.73,10.73,0,0,1-.08,1.13l-2.85,0a6,6,0,0,1-.18-1.49c.18-1.43-.38-1.83-1.8-1.84s-1.88.62-1.74,1.92a7.26,7.26,0,0,1-.06,1.14c-1,.67-2.1.2-3.14.37v-.11c-.11-3.4-.11-3.4-3.17-3.24L36.4,36.25c-1.07-.65-2.26-.29-3.39-.4,0-.89,0-1.77,0-2.65L36.2,33a10.4,10.4,0,0,0,3.15.07,13.84,13.84,0,0,0,3.58,0l2.94,0,3.52.09c3.21.21,3.43,0,3.07-3.42Z"/>
        <path class="cls-3" d="M62.45,46.24c0,1.12-.06,2.25-.08,3.37l0,0a39.43,39.43,0,0,0-6.52,0l-.38-.09c1-2.82.59-3.43-2.24-3.33-.25,0-.5.06-.75.09L46,46.16c0-.76,0-1.52,0-2.28,0-.57.29-1.15.85-1.05,2.87.47,2.61-1.44,2.56-3.22l3.12-.06v.11c0,3.62.29,3.92,3.33,3.07,1.08.27,2.24-.14,3.29.35,0,3.22-.68,3.14,3.14,3Z"/>
        <path class="cls-6" d="M32.84,46.38A.27.27,0,0,0,33,46.2L36.06,46l9.91.12L46,48.9a.14.14,0,0,0-.06.22c-1.37.74-2.84.27-4.26.32-2.21.09-4.43-.08-6.64.06-1.71.11-2.5-.39-2.22-2.17A5,5,0,0,0,32.84,46.38Z"/>
        <path class="cls-2" d="M52.49,39.55l-3.12.06c-.72-1.09.35-2.21,0-3.3C52.38,36.15,52.38,36.15,52.49,39.55Z"/>
        <path class="cls-2" d="M33,35.85c1.13.11,2.32-.25,3.39.4v.45C35.31,36.22,33.82,37.38,33,35.85Z"/>
        <path class="cls-2" d="M6.58,134.81l-3.05,0c0-1.13,0-2.26,0-3.4.06-3-.68-3,3.07-2.93,0,1,.11,2,.16,3Z"/>
        <path class="cls-3" d="M6.75,131.5c0-1-.11-2-.16-3,0-.14.11-.29.16-.44a7.48,7.48,0,0,0,3.16.06,1.11,1.11,0,0,1,.29.14,12.06,12.06,0,0,0-.15,3.34Z"/>
        <path class="cls-3" d="M13.31,128.11a8.56,8.56,0,0,0,3.15,0,1.26,1.26,0,0,1,.26.13,13.21,13.21,0,0,0-.14,3.32H13.15a12.9,12.9,0,0,0-.17-3.34A1.29,1.29,0,0,1,13.31,128.11Z"/>
        <path class="cls-1" d="M16.58,131.61a13.21,13.21,0,0,1,.14-3.32l3,0,.15.07c0,1.09-.05,2.19-.08,3.29Z"/>
        <path class="cls-1" d="M13,128.28a12.9,12.9,0,0,1,.17,3.34h-3.1a12.06,12.06,0,0,1,.15-3.34Z"/>
        <path class="cls-3" d="M19.79,131.61c0-1.1.06-2.2.08-3.29l3.12-.15.34.14c-.47,1.08-.14,2.22-.23,3.32l-.12-.06Z"/>
        <path class="cls-2" d="M26.4,134.67l-.39.11H23c0-1.08,0-2.15-.05-3.22l.12.06,3.23,0,.16,0Z"/>
        <path class="cls-2" d="M42.91,10.3a6,6,0,0,1-.09-1.51c.1-.62-.64-1.54.35-1.8.81-.22,1.91-.47,2.55.19a2.32,2.32,0,0,1,.13,2.53c-.63,1.16-2,.27-3,.57Z"/>
        <path class="cls-2" d="M13.25,161l.13,0,3.1,0c0,1.07,0,2.15.05,3.22h-.19C13.1,164.31,13.1,164.31,13.25,161Z"/>
        <path class="cls-3" d="M45.93,52.71l3.36-.07h6.55l3.16.22c0,1,0,2.07,0,3.11l-6.45.14L45.93,56a1,1,0,0,0-.08-.29l0-.38C45.9,54.45,45.92,53.58,45.93,52.71Z"/>
        <path class="cls-2" d="M39.28,56l-3.19,0c0-1.1,0-2.2,0-3.3h3.37A13.13,13.13,0,0,1,39.28,56Z"/>
        <path class="cls-3" d="M39.28,56a13.13,13.13,0,0,0,.19-3.31h3.37l0,2.61L43,56a.63.63,0,0,1-.29.1H39.52A.31.31,0,0,1,39.28,56Z"/>
        <path class="cls-2" d="M32.93,56h-.19c-3.35.15-3.35.15-3.12-3.27l3.32,0C32.93,53.8,32.93,54.9,32.93,56Z"/>
        <path class="cls-2" d="M52.5,46.25c.25,0,.5-.08.75-.09,2.83-.1,3.24.51,2.24,3.33l-3.06.1h0Z"/>
        <path class="cls-3" d="M32.93,56c0-1.1,0-2.2,0-3.29H36.1c0,1.1,0,2.2,0,3.3Z"/>
        <path class="cls-1" d="M42.87,55.32l0-2.61h3.09c0,.87,0,1.74,0,2.61,0,0-.13.07-.12.1a1.31,1.31,0,0,0,.09.28,1,1,0,0,1,.08.29l-2.62-.09Z"/>
        <path class="cls-6" d="M52.53,52.63H49.29c0-3.06,0-3.06,3.16-3h0C52.47,50.6,52.5,51.62,52.53,52.63Z"/>
        <path class="cls-3" d="M46,49.12A.14.14,0,0,1,46,48.9a1.67,1.67,0,0,0,.08.2Z"/>
        <path class="cls-3" d="M26.46,164.27l6.11,0a8.42,8.42,0,0,1,.07,1.5c-.18,1.41.38,2,1.8,1.79s1.7.52,1.64,1.75c-.08,1.57,0,3.14,0,4.71v.16l-9.57,0c-.06-1.1-.13-2.2-.19-3.29a8.57,8.57,0,0,0,0-3.27Z"/>
        <path class="cls-2" d="M26.27,167.56a8.57,8.57,0,0,1,0,3.27c-1.08,0-2.19.31-3.21-.3v-3.06Z"/>
        <path class="cls-3" d="M23.07,167.47v3.06c-1,.57-2.08.26-3.13.38l-.12-3C20.82,167.13,22,167.66,23.07,167.47Z"/>
        <path class="cls-6" d="M42.75,69l-3.23.21L36.18,69c0-1.08,0-2.16-.07-3.24l.14,0,3.2-.12a9.46,9.46,0,0,0,3,.06.14.14,0,0,0,.18.14Z"/>
        <path class="cls-5" d="M36.11,65.77c0,1.08,0,2.16.07,3.24l-3.23,0h0l-.06-3.36Z"/>
        <path class="cls-1" d="M36.11,65.77l-3.19-.07h-.09c.29-2.84.29-2.83-2.3-3.25a4.25,4.25,0,0,1-.86-.36c0-1-.07-1.93-.11-2.89a63.93,63.93,0,0,1,6.78.14l0,3.08a5.61,5.61,0,0,0-.12,3.32Z"/>
        <path class="cls-6" d="M39.52,56.1h3.15c.06,1,.13,2,.19,3h-.09l-3.3.06H39.4Z"/>
        <path class="cls-2" d="M36.37,62.42l0-3.08a12.54,12.54,0,0,1,3.06-.18h.07l0,3.41,0,0Z"/>
        <path class="cls-1" d="M42.75,16.69l3.22.1-.12,3c-1.05.16-2.14-.13-3.17.27a10.74,10.74,0,0,0-3.1-.08,12,12,0,0,0-3.64,0l-2.87,0-3.61-.13v0c.12-1,.24-2.07.35-3.11Z"/>
        <path class="cls-5" d="M36.2,33,33,33.2l-3.31,0c0-1.08,0-2.17,0-3.25a30.8,30.8,0,0,1,6.51,0C36.19,30.93,36.2,32,36.2,33Z"/>
        <path class="cls-2" d="M36.1,131.54c0,1.07-.05,2.14-.08,3.21l-3.06-.1v0c0-1,0-2,0-3l3.09-.06Z"/>
        <path class="cls-3" d="M32.82,164q.06-3.24.13-6.5h6.51c0,1.15.09,2.31.13,3.47l.09,3.48a4.3,4.3,0,0,0,0,2.08c0,.22,0,.43,0,.64a.47.47,0,0,0-.22.2l-2.08.07c-.69,0-1.16-.27-1.05-1,.38-2.35-1-2.63-2.8-2.42A3.82,3.82,0,0,1,32.82,164Z"/>
        <path class="cls-1" d="M49.24,131.55l-3.29.09-3.12,0-3.32-.07a13.1,13.1,0,0,1,.13-3.25l6.34-.14a9.15,9.15,0,0,0,3.42.06h0Z"/>
        <path class="cls-3" d="M39.64,128.29a13.1,13.1,0,0,0-.13,3.25H36.1l0,0c0-1.06,0-2.13-.07-3.19l3.38-.22A.48.48,0,0,1,39.64,128.29Z"/>
        <path class="cls-3" d="M19.82,105.25l0,3.4-3.39.08h.07c-.23-1.08.32-2.27-.45-3.28Z"/>
        <path class="cls-2" d="M6.68,108.81l-3.11-.08c0-1,0-2-.08-3.06l.43-.25,2.68.07v3.23Z"/>
        <path class="cls-3" d="M3.92,105.42l-.43.25c-.25,0-.34-.18-.33-.42l.18-.34Z"/>
        <path class="cls-6" d="M32.92,65.7,33,69.06,29.66,69c0-1.11-.09-2.22-.14-3.34v0l3.32.07Z"/>
        <path class="cls-3" d="M32.83,65.7l-3.32-.07c0-1.18.1-2.36.16-3.54a4.25,4.25,0,0,0,.86.36C33.12,62.87,33.12,62.86,32.83,65.7Z"/>
        <path class="cls-3" d="M33,131.62c0,1,0,2,0,3l-3.45.05v0c.12-3.07.12-3.07-2.83-3.1h-.19l-.16,0c0-1.1.27-2.23-.23-3.31l.35-.14,6.53.22Z"/>
        <path class="cls-1" d="M26.87,138v-3.23l2.64-.1v0c0,1.14,0,2.28,0,3.43Z"/>
        <path class="cls-1" d="M36.19,29.9a30.8,30.8,0,0,0-6.51,0l-.12-.12,0-3.09h0l22.92,0c0,1,0,2.05,0,3.08l0,0-3,.09H42.89l-3.51,0A11,11,0,0,0,36.19,29.9Z"/>
        <path class="cls-1" d="M6.61,108.72c0-1.08,0-2.15,0-3.23l9.48,0c.77,1,.22,2.2.45,3.28l-3.29-.12-3.29.22A9.61,9.61,0,0,0,6.61,108.72Z"/>
        <path class="cls-3" d="M3.49,101.87l.43.24-.58.51-.18-.34C3.15,102,3.24,101.89,3.49,101.87Z"/>
        <path class="cls-5" d="M52.43,26.68l-22.92,0V23.25a9.84,9.84,0,0,0-.05-3.38l3.61.12c-.06.56-.1,1.12-.17,1.68-.17,1.2.28,1.66,1.55,1.65s1.93-.31,1.72-1.68c-.08-.55-.15-1.1-.23-1.66a12,12,0,0,1,3.64,0,6.07,6.07,0,0,0-.13.94c0,1.1-.49,2.38,1.6,2.4s1.72-1.14,1.71-2.32c0-.31,0-.63-.08-.94,1-.4,2.12-.11,3.17-.27a1.2,1.2,0,0,0,.32.16,5.85,5.85,0,0,0-.17,1.1c0,1.05-.43,2.24,1.51,2.27s1.93-.87,1.8-2.2c0-.31,0-.62,0-.94,3-.81,3.19-.65,3.18,2.31C52.48,23.9,52.44,25.29,52.43,26.68Z"/>
        <path class="cls-6" d="M3.34,102.62l.58-.51L7,102c3.6,0,7.2,0,10.8.07.69,0,1.38.12,2.07.18,0,1,0,2,.05,3h-.09l-3.74.19-9.48,0-2.68-.07-.58-.51Z"/>
        <path class="cls-5" d="M29.51,134.69l-2.64.1-.47-.12.09-3.09h.19C29.63,131.62,29.63,131.62,29.51,134.69Z"/>
        <path class="cls-3" d="M55.89,92.29l6.49,0c0,1.09,0,2.18,0,3.27-1.56,0-3.13.13-4.68,0s-2.07.44-1.85,1.9c.06.43.08.86.12,1.3a20.35,20.35,0,0,0-.07,2.06c.06,1-.33,1.46-1.31,1.3-1.69-.26-2.1.6-1.91,2.06a1.11,1.11,0,0,1-.27,1l-3.09-.09v-2.89c3.52-.39,3.88-.84,2.76-3.49.81-1,.12-2.26.59-3.32C55.85,95.32,55.85,95.32,55.89,92.29Z"/>
        <path class="cls-3" d="M62.46,79.35c-.07-1.09-.13-2.18-.2-3.27l3.37-.18,3.26.07c0,1.13,0,2.25,0,3.38Z"/>
        <path class="cls-2" d="M56,98.83c0-.44-.06-.87-.12-1.3-.22-1.46.34-2,1.85-1.9s3.12,0,4.68,0c0,1.06,0,2.11,0,3.17C61.25,99,60,98.51,59,99.2A5.57,5.57,0,0,0,56,98.83Z"/>
        <path class="cls-2" d="M68.87,79.35c0-1.13,0-2.25,0-3.38l3.39-.09V76c0,1.11,0,2.22,0,3.32l-.07.07Z"/>
        <path class="cls-2" d="M72.32,85.8c3.85,0,3-.23,3.14,3.08C71.79,89,72.3,89.2,72.32,85.8Z"/>
        <path class="cls-6" d="M72.08,29.87a6.66,6.66,0,0,1,0,3.2l-3,0A11.21,11.21,0,0,1,69,29.83Z"/>
        <path class="cls-2" d="M59,23.41c-.05-1.15-.09-2.3-.14-3.45l3.51-.12C62.35,23,62.35,23,59,23.41Z"/>
        <path class="cls-5" d="M69,29.83a11.21,11.21,0,0,0,.13,3.27,1.4,1.4,0,0,0-.29.09.87.87,0,0,0-.32.06l-3-.17c0-.06,0-.12,0-.18C65.62,29.68,65.62,29.68,69,29.83Z"/>
        <path class="cls-2" d="M59,28.23a3.32,3.32,0,0,1,0-3.44A5.2,5.2,0,0,1,59,28.23Z"/>
        <path class="cls-1" d="M56,98.83a5.57,5.57,0,0,1,3,.37,7.26,7.26,0,0,1,0,1.14c-.17,1.34.21,2.11,1.74,1.87,1.23-.2,1.64.32,1.65,1.58s-.53,1.65-1.71,1.56c-1-.08-2,0-3,0-1.18-.07-1.9.08-1.87,1.6s.38,2,1.83,1.82a8.93,8.93,0,0,1,1.71.06c0,1,0,2,0,3-3.51.19-3.51.19-3.51,3.79,0,3.23-.08,3.3-3.3,2.72,0-1,0-2,0-3.06.13-3.34.13-3.34-3.11-3.45-.21-1.82-.05-3.31,2.43-2.9a.56.56,0,0,0,.69-.48,7.05,7.05,0,0,0-.07-3.1,1.11,1.11,0,0,0,.27-1c-.19-1.46.22-2.32,1.91-2.06,1,.16,1.37-.32,1.31-1.3A20.35,20.35,0,0,1,56,98.83Z"/>
        <path class="cls-2" d="M75.51,105.73c0,1,0,2,.08,3l-3.26,0c0-.25-.08-.5-.09-.75C72.15,105.11,72.7,104.73,75.51,105.73Z"/>
        <path class="cls-2" d="M59.32,111.78c0-1,0-2,0-3,.38,0,.75-.06,1.12-.12,1.59-.26,2.21.42,2,2a8.52,8.52,0,0,0,0,1.13Z"/>
        <path class="cls-1" d="M67.35,105.27l-1.14,0v-3c2.8-.19,2.8-.19,2.58,2.61C68.29,105,67.72,104.75,67.35,105.27Z"/>
        <path class="cls-2" d="M66.21,102.28v3A1.81,1.81,0,0,1,66.21,102.28Z"/>
        <path class="cls-2" d="M67.35,105.27c.37-.52.94-.31,1.44-.38C68.51,105.75,68,105.64,67.35,105.27Z"/>
        <path class="cls-5" d="M72.11,125.17l.18,3,0,0c-.25,0-.5.08-.75.09-2.84.12-2.84.12-2.61,2.93a2.37,2.37,0,0,0,.09.36l-.31.11-2.52,0-.38,0a.71.71,0,0,0-.31-.13c0-.5.09-1,.16-1.51.18-1.3-.32-1.75-1.68-1.76s-1.8.55-1.65,1.8c.07.5.09,1,.13,1.51a1,1,0,0,0-.27.11l-3.07,0a.66.66,0,0,0-.26-.11c0-.5,0-1,.06-1.51.16-1.32-.38-1.75-1.71-1.78s-1.5.79-1.42,1.81c0,.51.1,1,.14,1.51a.48.48,0,0,0-.27.09l-3.18.05-.11-.11c.23-3.31.23-3.31-3-3.37h0a10.39,10.39,0,0,1,0-3.1h0l3.35-.06,12.72,0L69,125Z"/>
        <path class="cls-1" d="M65.42,125l-12.72,0c-.06-3-.06-3.09,2.85-3.16,3.27-.08,6.54-.07,9.81-.1A9.53,9.53,0,0,1,65.42,125Z"/>
        <path class="cls-1" d="M49.11,121.75l.24,3.36h0a9.88,9.88,0,0,0-3.43,0c-1-.23-2.18.25-3.17-.38l.12-3Z"/>
        <path class="cls-2" d="M49.11,121.75l-6.19,0c0-.3-.05-.61-.1-.92-.23-1.61.23-2.46,2.09-2.24a44.72,44.72,0,0,0,4.49.12l0,0C49.18,119.67,49.53,120.74,49.11,121.75Z"/>
        <path class="cls-2" d="M62.35,115.21a13.9,13.9,0,0,0,0,1.71c.19,1.42-.52,1.67-1.77,1.68S59,118.21,59,117s.27-1.95,1.69-1.76a16.21,16.21,0,0,0,1.71,0Z"/>
        <path class="cls-4" d="M65.42,125a9.53,9.53,0,0,0-.06-3.24c1.16,0,2.33-.07,3.49-.12l.05,0L69,125Z"/>
        <path class="cls-2" d="M52.46,115.23c0,1,0,2,0,3.06-1,.51-2.11.06-3.13.35l0,0-.06-3.41Z"/>
        <path class="cls-5" d="M75.36,161c.06,1.11.11,2.23.17,3.35l-13.11.08-3.44,0-3.21-.07,0-3.3L75.39,161Z"/>
        <path class="cls-2" d="M72,170.83H69.12c-.07-.48-.16-1-.22-1.46-.18-1.29.16-1.92,1.69-1.92s1.81.68,1.68,1.94A2.78,2.78,0,0,1,72,170.83Z"/>
        <path class="cls-4" d="M59,164.41l3.44,0c0,3.18,0,3.18-3.51,3l0,0Z"/>
        <path class="cls-2" d="M58.85,170.84a10.84,10.84,0,0,1-3-.13l0-3.05,3.07-.16,0,0A9.49,9.49,0,0,1,58.85,170.84Z"/>
        <path class="cls-6" d="M72.3,174v-3h3.08l.09,3Z"/>
        <path class="cls-6" d="M65.68,55.81l3.25.27v3.05H62.38l0-3Z"/>
        <path class="cls-5" d="M68.93,59.13V56.08l3.41,0-.12,3C71.12,59.41,70,59.85,68.93,59.13Z"/>
        <path class="cls-4" d="M59,63c-.08-.93.62-.77,1.16-.81l2.09-.11C61.59,63.76,60.08,62.57,59,63Z"/>
        <path class="cls-4" d="M62.32,59.93,62,59.24l.43-.11h.06Z"/>
        <path class="cls-3" d="M69,46.06l-6.5.18-.2-.21a9.07,9.07,0,0,0,0-3,37.26,37.26,0,0,1,6.68-.08C68.92,44,68.93,45,69,46.06Z"/>
        <path class="cls-2" d="M69,46.06c0-1.05,0-2.09,0-3.14l3.42-.17h0c0,1.1,0,2.2-.07,3.3A10.61,10.61,0,0,1,69,46.06Z"/>
        <path class="cls-2" d="M65.68,55.81l-3.27.29L59.13,56,59,56c0-1,0-2.08,0-3.11l3.35-.23c.19,0,.38.07.57.08C65.83,52.79,65.83,52.79,65.68,55.81Z"/>
        <path class="cls-6" d="M62.35,52.62,59,52.85l-3.16-.22,0-3.05a39.43,39.43,0,0,1,6.52,0C62.38,50.6,62.37,51.61,62.35,52.62Z"/>
        <path class="cls-3" d="M69,154.63l-.18-3.44H72.3c0,1.06,0,2.13-.07,3.19l.08.12-2.67.05-.35.19A.26.26,0,0,1,69,154.63Z"/>
        <path class="cls-3" d="M69,125l-.09-3.29h3.44c-.08,1.15-.15,2.3-.23,3.45Z"/>
        <path class="cls-5" d="M75.35,39.66c0,1,.07,2,.11,3.05l-3.16,0h0l-.12-3,3.18-.05Z"/>
        <path class="cls-3" d="M75.39,161,55.82,161a10.93,10.93,0,0,0-3.23.09l-.23-.23c0-.86.09-1.72.13-2.59a.71.71,0,0,0,.3-.71l3,0,3.33,0a4.36,4.36,0,0,0,3.18,0,39.67,39.67,0,0,0,6.63,0,.26.26,0,0,1,.31-.15l.36.19,2.68,0a1.79,1.79,0,0,0,.55.08c2-.28,2.92.51,2.63,2.56l0,.45A.47.47,0,0,1,75.39,161Z"/>
        <path class="cls-1" d="M69.27,157.39a.26.26,0,0,0-.31.15l.05-2.91a.26.26,0,0,0,.28.11l.35-.19,2.67-.05v3.05l-2.68,0C69.58,157.38,69.49,157.28,69.27,157.39Z"/>
        <path class="cls-4" d="M75.52,160.64l0-.45a2.85,2.85,0,0,1,.12.31S75.55,160.59,75.52,160.64Z"/>
        <path class="cls-1" d="M72.34,79.32c0-1.1,0-2.21,0-3.32h2.64a.26.26,0,0,0,.06.29l.36.38.21,2.64Z"/>
        <path class="cls-6" d="M69.05,131.54a2.37,2.37,0,0,1-.09-.36c-.23-2.81-.23-2.81,2.61-2.93.25,0,.5-.06.75-.09,0,1.16,0,2.31,0,3.47l0,0Z"/>
        <path class="cls-6" d="M75.38,134.68a8.83,8.83,0,0,1-3.16,0c-.61-1.06.09-2.08.11-3.12l0,0h3.09C75.39,132.64,75.39,133.66,75.38,134.68Z"/>
        <path class="cls-2" d="M75.35,76.68,75,76.3C75.23,76.31,75.37,76.42,75.35,76.68Z"/>
        <path class="cls-3" d="M75.39,39.66l-3.18.05-4.52-.12.8-.31c.24,0,.37-.11.34-.37,0-1.65,0-3.31,0-5l0-.76a1.4,1.4,0,0,1,.29-.09l3,0a1.21,1.21,0,0,1,.32.11c-.32,3.19-.32,3.19,2.82,3.09l.19,0,0,0C75.37,37.37,75.38,38.52,75.39,39.66Z"/>
        <path class="cls-2" d="M75.38,36.25l-.19,0c-3.14.1-3.14.1-2.82-3.09h2.95Z"/>
        <path class="cls-3" d="M42.64,174l.26,3.38-3.37-.09c0-1.12-.05-2.24-.07-3.36Z"/>
        <path class="cls-2" d="M39.46,174c0,1.12,0,2.24.07,3.36l-.14.13a5.94,5.94,0,0,0-1.11,0c-1.83.26-2.51-.58-2.26-2.33a7.22,7.22,0,0,0,0-.93V174Z"/>
        <path class="cls-1" d="M36,174.14a7.22,7.22,0,0,1,0,.93c-.25,1.75.43,2.59,2.26,2.33a5.94,5.94,0,0,1,1.11,0c0,1,0,2.08,0,3.12l-9.91-.12c-.05-3.39.51-3-3.08-3l-.07,0c0-1.11.07-2.22.1-3.33Z"/>
        <path class="cls-2" d="M26.44,177.41c3.59,0,3-.35,3.08,3H26.45C26.45,179.44,26.45,178.42,26.44,177.41Z"/>
        <path class="cls-2" d="M46.08,164l3.11.38c.06,1,.12,2.05.19,3.08l0,0-3.47-.06c0-1,0-2.05,0-3.08A.28.28,0,0,1,46.08,164Z"/>
        <path class="cls-1" d="M45.92,164.32c0,1,0,2.05,0,3.08l-3,0c0-1,0-2.07,0-3.1Z"/>
        <path class="cls-1" d="M55.87,167.66l0,3.05-3.39.21c0-1.08,0-2.17,0-3.25A10.83,10.83,0,0,1,55.87,167.66Z"/>
        <path class="cls-3" d="M55.87,167.66a10.83,10.83,0,0,0-3.41,0l-3.08-.18c-.07-1-.13-2.05-.19-3.08,0-.12.05-.24.06-.37.15-3,.15-3,3.11-3.14l.23.23c-.25,3.21-.25,3.21,3,3.2h.19l3.21.07c0,1,0,2.06,0,3.09Z"/>
        <path class="cls-6" d="M49.3,20.21c0,.32,0,.63,0,.94.13,1.33,0,2.23-1.8,2.2S46,22.13,46,21.08a5.85,5.85,0,0,1,.17-1.1A6.39,6.39,0,0,1,49.3,20.21Z"/>
        <path class="cls-3" d="M52.58,66.08c-1-.69-2.14-.23-3.21-.4l-3.43-.06c0-1.61-.56-3.65,2.35-3.16.63.1.86-.4.86-1,0-.76,0-1.51,0-2.27l3.56-.1h.15l0,.15c-.07.5-.13,1-.19,1.51-.13,1.15.22,1.9,1.54,1.72s1.67.49,1.7,1.75c0,1.43-.58,1.78-1.83,1.68A7.76,7.76,0,0,0,52.58,66.08Z"/>
        <path class="cls-6" d="M52.87,59.25l0-.15h-.15c-.05-1-.09-2-.13-3L59,56l.14,0c0,1.05-.06,2.1-.1,3.15Z"/>
        <path class="cls-5" d="M59,59.16c0-1,.07-2.1.1-3.15l3.28.09,0,3-.43.11Z"/>
        <path class="cls-6" d="M52.07,98.83c1.12,2.65.76,3.1-2.76,3.49l-3.37-.11H46c0-1.1,0-2.2.07-3.3Z"/>
        <path class="cls-6" d="M49.43,88.94l3,.1a9.11,9.11,0,0,1-.06,3.21l-.36.4c-1-.09-2,.33-2.87-.32Z"/>
        <path class="cls-4" d="M52,92.65l.36-.4,3.55.07,0,0c0,3,0,3-3.23,3.21C52.15,94.62,53,93.44,52,92.65Z"/>
        <path class="cls-3" d="M55.91,92.32l-3.55-.07A9.11,9.11,0,0,0,52.42,89l0-3.23,3.44,0C55.9,88,55.9,90.16,55.91,92.32Z"/>
        <path class="cls-1" d="M49.11,59.21c0,.76,0,1.51,0,2.27,0,.58-.23,1.08-.86,1C45.38,62,46,64,45.94,65.62l-3.25.2c-.12,0-.18,0-.19-.14l0-3.06c.55-1.14.25-2.34.25-3.51h.09Z"/>
        <path class="cls-6" d="M52.4,105.3a7.05,7.05,0,0,1,.07,3.1l-6.55.37a40.47,40.47,0,0,0-6.42,0l-3.47,0H33l-3.39-.06c.08-3.32.08-3.31,3.45-3.33,1,0,2,0,3-.08l3.45,0a8.17,8.17,0,0,0,3.34,0,9,9,0,0,0,3.19,0,8.52,8.52,0,0,0,3.3,0Z"/>
        <path class="cls-3" d="M29.59,108.72l3.39.06-.19,3.13a40.88,40.88,0,0,0-4.14,0c-1.65.13-2.55-.29-2.22-2.12a3.7,3.7,0,0,0,0-.94Z"/>
        <path class="cls-3" d="M39.48,105.27l-3.45,0a9.81,9.81,0,0,0,0-3.06h3.45Z"/>
        <path class="cls-5" d="M19.91,105.25c0-1,0-2-.05-3l3.13-.07c0,1,.07,2,.1,3Z"/>
        <path class="cls-2" d="M39.48,105.27l0-3h3.32c0,1,0,2,0,3A8.17,8.17,0,0,1,39.48,105.27Z"/>
        <path class="cls-3" d="M42.82,105.22c0-1,0-2,0-3l3.22,0h-.05c0,1,.05,2,.07,3A9,9,0,0,1,42.82,105.22Z"/>
        <path class="cls-3" d="M49.36,128.2c3.27.06,3.27.06,3,3.37l-3.16,0Z"/>
        <path class="cls-1" d="M59.15,131.62l3.07,0c0,1,.07,2,.11,3H59.14C59.14,133.64,59.14,132.63,59.15,131.62Z"/>
        <path class="cls-3" d="M62.33,134.67c0-1-.07-2-.11-3a1,1,0,0,1,.27-.11l3,0a.71.71,0,0,1,.31.13c0,.25,0,.5,0,.76l-.05,2.29Z"/>
        <path class="cls-2" d="M52.51,131.68l3.19-.05a10.75,10.75,0,0,1,.14,3.05l-.37,0C52.39,134.8,52.39,134.8,52.51,131.68Z"/>
        <path class="cls-3" d="M72.33,131.6c0,1-.72,2.06-.11,3.12l-3.37-.07c0-1-.07-2-.11-3l.31-.11Z"/>
        <path class="cls-3" d="M55.84,134.68a10.75,10.75,0,0,0-.14-3.05.43.43,0,0,1,.26-.09l2.93,0a.66.66,0,0,1,.26.11c0,1,0,2,0,3Z"/>
        <path class="cls-1" d="M68.74,131.65c0,1,.07,2,.11,3l-3.11,0c0-.77,0-1.53.05-2.29a.77.77,0,0,0,.43-.71Z"/>
        <path class="cls-5" d="M62.33,157.56a4.36,4.36,0,0,1-3.18,0,6.47,6.47,0,0,1,0-1.32c.08-.46-.42-1.17.15-1.34a10.93,10.93,0,0,1,2.75-.27c.08,0,.24.53.26.82C62.36,156.17,62.33,156.87,62.33,157.56Z"/>
        <path class="cls-3" d="M49.34,115.25l.06,3.41a44.72,44.72,0,0,1-4.49-.12c-1.86-.22-2.32.63-2.09,2.24,0,.31.07.62.1.92l-.12,3-3.35.39-6.52-.21a8.52,8.52,0,0,1,0-1.13c.25-1.61-.32-2.3-2-2.11-1.49.17-3,.11-4.52.15L23,121.72v-3.1l.19,0c3.19-.14,3.19-.14,3.2-3.32l6.48-.1,6.58,0v1.13c0,1.11-.27,2.21,1.58,2.26s1.77-1.07,1.74-2.29a10.52,10.52,0,0,1,.07-1.12Z"/>
        <path class="cls-5" d="M39.47,115.21l-6.58,0c0-1.09-.06-2.18-.1-3.27s.13-2.08.19-3.12H36c.11,2.87.11,2.88,2.95,3.32a5.19,5.19,0,0,0,.56,0c0,1-.07,2.08-.11,3.12Z"/>
        <path class="cls-5" d="M26.38,121.84c1.51,0,3,0,4.52-.15,1.72-.19,2.29.5,2,2.11a8.52,8.52,0,0,0,0,1.13l-6.48.19-.11-.15Z"/>
        <path class="cls-5" d="M23,128.17c.05-1,.09-2.06.14-3.09l3.21-.11.11.15v3l-.35.14H23.33Z"/>
        <path class="cls-3" d="M45.92,164.32l-3,0,0-3.42c3.06.07,3.06.07,3.2,3.1A.28.28,0,0,0,45.92,164.32Z"/>
        <path class="cls-1" d="M39.68,164.5,39.59,161a3.14,3.14,0,0,1,.75,0c.76.15,2.08-.47,1.95,1-.1,1,.29,2.8-1.85,2.44A3.34,3.34,0,0,0,39.68,164.5Z"/>
        <path class="cls-1" d="M39.72,167.22c0-.21,0-.42,0-.64C40,166.79,40,167,39.72,167.22Z"/>
        <path class="cls-6" d="M67.69,39.59l4.52.12.12,3-3.42.17a37.26,37.26,0,0,0-6.68.08,9.09,9.09,0,0,0-3.12.08c-1-.49-2.21-.08-3.29-.35,0-1,0-2,.07-3l3.52-.14,2.85,0,3.65,0Z"/>
        <path class="cls-3" d="M59.41,39.56l-3.52.14c-.08-.14-.17-.28-.26-.41a7.26,7.26,0,0,0,.06-1.14c-.14-1.3.21-1.94,1.74-1.92s2,.41,1.8,1.84A6,6,0,0,0,59.41,39.56Z"/>
        <path class="cls-5" d="M45.89,29.84h3.53a10.34,10.34,0,0,0,0,3.33l-3.52-.09A9.22,9.22,0,0,0,45.89,29.84Z"/>
        <path class="cls-5" d="M39.38,29.86l3.51,0a7,7,0,0,0,0,3.26,13.84,13.84,0,0,1-3.58,0Z"/>
        <path class="cls-6" d="M39.38,29.86l0,3.2A10.4,10.4,0,0,1,36.2,33c0-1,0-2.06,0-3.09A11,11,0,0,1,39.38,29.86Z"/>
        <path class="cls-3" d="M65.91,39.54l-3.65,0a10.73,10.73,0,0,0,.08-1.13c0-1.14-.24-2.17,1.63-2.18s1.87.92,1.79,2.22A5.29,5.29,0,0,0,65.91,39.54Z"/>
        <path class="cls-5" d="M55.63,39.29c.09.13.18.27.26.41,0,1,0,2-.07,3-3,.85-3.36.55-3.33-3.07C53.53,39.49,54.65,40,55.63,39.29Z"/>
        <path class="cls-6" d="M42.93,33.09a7,7,0,0,1,0-3.26h3a9.22,9.22,0,0,1,0,3.23Z"/>
        <path class="cls-6" d="M49.39,33.16a10.34,10.34,0,0,1,0-3.33l3-.09C52.82,33.12,52.6,33.37,49.39,33.16Z"/>
        <path class="cls-2" d="M68.79,33.19l0,.76c-.11-.23-.23-.47-.35-.7A.87.87,0,0,1,68.79,33.19Z"/>
        <path class="cls-2" d="M68.83,38.91c0,.26-.1.36-.34.37Z"/>
        <path class="cls-1" d="M59.11,43.08A9.09,9.09,0,0,1,62.23,43a9.07,9.07,0,0,1,0,3C58.43,46.22,59.11,46.3,59.11,43.08Z"/>
        <path class="cls-5" d="M55.87,49.58l0,3.05H52.53c0-1-.06-2-.1-3l3.06-.1Z"/>
        <path class="cls-1" d="M23.33,128.31H26.1c.5,1.08.18,2.21.23,3.31l-3.23,0C23.19,130.53,22.86,129.39,23.33,128.31Z"/>
        <path class="cls-5" d="M49.11,59.21l-6.25-.09c-.06-1-.13-2-.19-3A.63.63,0,0,0,43,56a.41.41,0,0,0,.35-.1l2.62.09,6.61.11c0,1,.08,2,.13,3Z"/>
        <path class="cls-2" d="M45.85,55.7a1.31,1.31,0,0,1-.09-.28s.08-.07.12-.1Z"/>
        <path class="cls-2" d="M43.31,55.9A.41.41,0,0,1,43,56l-.09-.68Z"/>
        <path class="cls-3" d="M36.37,62.42l3.09.13v3.07l-3.2.12A5.61,5.61,0,0,1,36.37,62.42Z"/>
        <path class="cls-2" d="M39.45,65.62V62.55l0,0,3.08,0,0,3.06A9.46,9.46,0,0,1,39.45,65.62Z"/>
        <path class="cls-3" d="M42.52,62.62l-3.08,0,0-3.41,3.3-.06C42.77,60.28,43.07,61.48,42.52,62.62Z"/>
        <path class="cls-6" d="M42.68,20.09c0,.31.08.63.08.94,0,1.18.32,2.35-1.71,2.32s-1.55-1.3-1.6-2.4a6.07,6.07,0,0,1,.13-.94A10.74,10.74,0,0,1,42.68,20.09Z"/>
        <path class="cls-6" d="M35.94,20c.08.56.15,1.11.23,1.66.21,1.37-.46,1.67-1.72,1.68s-1.72-.45-1.55-1.65c.07-.56.11-1.12.17-1.68Z"/>
        <path class="cls-5" d="M33,131.62c0-1.08,0-2.16,0-3.24h3c0,1.06,0,2.13.07,3.19Z"/>
        <path class="cls-5" d="M39.45,125.14l3.35-.39c1,.63,2.12.15,3.17.38,0,1,0,2,0,3l-6.34.14a.48.48,0,0,0-.25-.14Z"/>
        <path class="cls-6" d="M46,128.15c0-1,0-2,0-3a9.88,9.88,0,0,1,3.43,0,10.39,10.39,0,0,0,0,3.1A9.15,9.15,0,0,1,46,128.15Z"/>
        <path class="cls-6" d="M39.45,125.14l-.06,3-3.38.22H33l-6.53-.22v-3l6.48-.19Z"/>
        <path class="cls-1" d="M46,105.22c0-1,0-2-.07-3l3.37.11v2.89A8.52,8.52,0,0,1,46,105.22Z"/>
        <path class="cls-5" d="M49.34,115.25l-6.48-.06h0l-.25-3.13c1.09-.39,2.23-.09,3.34-.28h3.36c3.24.11,3.24.11,3.11,3.45Z"/>
        <path class="cls-3" d="M49.35,111.78H46c0-1-.05-2-.07-3l6.55-.37a.56.56,0,0,1-.69.48C49.3,108.47,49.14,110,49.35,111.78Z"/>
        <path class="cls-6" d="M65.53,131.49l-3,0c0-.5-.06-1-.13-1.51-.15-1.25.23-1.82,1.65-1.8s1.86.46,1.68,1.76C65.62,130.48,65.58,131,65.53,131.49Z"/>
        <path class="cls-6" d="M58.89,131.51l-2.93,0c0-.5-.1-1-.14-1.51-.08-1,0-1.83,1.42-1.81s1.87.46,1.71,1.78C58.88,130.5,58.91,131,58.89,131.51Z"/>
        <path class="cls-2" d="M66.22,131.67a.77.77,0,0,1-.43.71c0-.26,0-.51,0-.76Z"/>
        <path class="cls-6" d="M55.77,164.34h-.19c-3.24,0-3.24,0-3-3.2a10.93,10.93,0,0,1,3.23-.09C55.8,162.14,55.78,163.24,55.77,164.34Z"/>
        <path class="cls-2" d="M69.64,154.55l-.35.19A3.9,3.9,0,0,0,69.64,154.55Z"/>
        <path class="cls-2" d="M69.27,157.39c.22-.11.31,0,.36.19Z"/>
        <path class="cls-2" d="M45.92,108.77c0,1,0,2,.07,3-1.11.19-2.25-.11-3.34.28a10,10,0,0,0-3.14,0v-3.23A40.47,40.47,0,0,1,45.92,108.77Z"/>
        <path class="cls-3" d="M39.5,108.79c0,1.07,0,2.15,0,3.23l0,.08a5.19,5.19,0,0,1-.56,0c-2.84-.44-2.84-.45-2.95-3.32Z"/>
        <path class="cls-2" d="M42.86,115.19a10.52,10.52,0,0,0-.07,1.12c0,1.22.19,2.33-1.74,2.29s-1.58-1.15-1.58-2.26v-1.13h0l3.47,0Z"/>
        <path class="cls-6" d="M42.9,115.18l-3.47,0c0-1,.07-2.08.11-3.12l0-.08a10,10,0,0,1,3.14,0C42.73,113.1,42.81,114.14,42.9,115.18Z"/>
      </g>
    </g>
  </g>
</svg>
