<svg version="1" xmlns="http://www.w3.org/2000/svg" width="1962.667" height="1962.667" viewBox="0 0 1472.000000 1472.000000"><path d="M789.5 1.6c-1.4 1.4-4.6 1.6-23.8 1.5-12.2 0-23.4.2-24.9.5-3.5.7-4.6 4-4.5 14.5 0 4.7-.2 9-.6 9.6-.4.5-.3 1.3 0 1.7.4.4.9 12.8 1.1 27.6.3 24.5.1 27.2-1.5 29.7-1.3 1.9-1.8 4.9-2 10.2-.1 4.2-.2 8-.2 8.6-.1.6-12.2 1.1-33.9 1.2-18.5.1-35.1.5-36.9.8-1.7.3-3.4 1.3-3.9 2.3-.4.9-.8 6-1 11.2-.2 5.2-.3 9.9-.3 10.3-.1.5-1.7.7-3.6.4-1.9-.3-3.7-.1-4 .3-.3.4-2 .4-3.9 0s-3.9-.4-4.6 0c-.6.4-2.2.5-3.5.2l-2.3-.4V86.3c0-25-.3-45.7-.6-46-.3-.4-.8-.4-1-.2-.4.3-.8 111.2-.5 117.9 0 .8-.2 3.1-.5 5-.8 5.1-.8 13.7 0 19.5.6 4.3.7 17 .3 42.5-.2 9.4.1 13.1.9 12.7.4-.3 1.6 0 2.7.4 1.8.9 1.8.9-.2.5-1.3-.2-2.6 0-2.9.6-.4.5-.6 11.4-.6 24.1.1 12.8.1 25.4.1 28.2-.1 13.4-.1 44.2 0 45.7.3 4.6 14.1 7.4 20.3 4.2 3.9-2 4.7-4.8 4.3-15.1-.3-8.7.5-11.6 2.8-10.7 1.3.5 11 1.1 19.3 1.3l5 .1-.1 9.2c-.1 5.1-.8 11.3-1.5 13.8-.6 2.5-1.3 9.5-1.4 15.7-.1 6.2-.5 11.5-.9 11.9-.4.4-3.7.9-7.4 1.1-14 .7-16 2.7-16.2 16.1l-.1 5.3-7.2-.2c-7.6-.2-12.7-2.1-13-4.9 0-.8-.3-2.9-.5-4.5-.2-1.7-.3-7.3-.3-12.5 0-7.2-.4-10.3-1.7-12.9-3.8-7.4-4.5-4.6-4.5 17.4 0 8.6.4 12.9 1.8 18.5.7 3.1 1.3 16.3 1.2 30 0 21.5 0 41.8.2 53 .1 6.3.1 25.6 0 42.8-.1 17.3.1 31.6.4 31.9.3.3-.5 2.4-1.8 4.7-3.3 6-3.4 13.2-.3 19.5 1.4 2.7 2.3 5.1 2.1 5.4-1 .9-1.1 20.2-.2 22.9.6 1.6 2 3.4 3.1 4 1.4.7 9.9 1.2 22.7 1.5 34 .5 48.1 1 48.8 1.8 1.2 1.1.9 22.5-.2 22.6-3.4.3-16 .8-28.7 1.2-15 .5-17.4 1.1-19.8 5-1.7 2.6-1.4 18.7.3 20.4.3.4.1 1.2-.5 1.9-.6.8-1.1 4.7-1 9 .2 12.7-3.8 17.4-14.3 16.9-2.8-.1-6.4-.3-8.1-.4l-3-.1v-25.8c0-22.3.2-26.1 1.6-28.3 2.2-3.2 1.7-12.9-.7-17.2-.9-1.6-1.3-1.2-2.5 3-.7 2.6-1.3 7.5-1.4 10.8v6l-99.7-.3c-62.2-.1-100.6.1-102.2.7-1.4.6-3.2 2.1-4.1 3.5-2.1 3.1-2.3 12.2-.4 16.2 2.8 5.8.9 5.7 77.8 5.8 74.7.2 73.7.1 76.2 4.8 1.7 3.2 1.7 92.7 0 93.8-.7.4-1.2 1.1-1.1 1.6.3 2.1-7 4.5-13.7 4.6-3.7 0-7.2-.1-7.8-.2-.5-.1-1.4-.1-2 0-.5.1-3.7.1-7 0-16.3-.5-37.5-.4-37.5.1 0 .3-2.3.3-5-.1-2.8-.4-5.2-.5-5.4-.2-.7.6-51.3.5-52.4-.2-3.5-2.2-16.5-2.3-19.7-.2-3.1 2.1-3.5 5.4-3.4 30.6 0 11.3 0 26-.1 32.7-.1 6.7.1 12.7.4 13.2.4.5.2 1.2-.4 1.6-.6.4-.7 1.1-.4 1.7.4.5.6 11 .6 23.1 0 24.1.6 28 4.9 29 4.4.9 41.3.1 44.1-1.1 1.8-.7 3.7-.8 6-.1 3.8 1.1 19.3 1 22.3-.1 1.2-.5 3.4-.3 5 .4 4.8 2 11.7 1.9 17.1-.2 3.7-1.4 5.7-1.6 7.5-.9 3.1 1.2 19.8 1.8 20.4.7.6-.9 2-.8 7.6.8 1.9.5 7.4.8 12.2.8 4.9-.1 9.1.3 9.4.7 1.2 2 1 15.3-.3 18.4-1.9 4.5-4.7 5.6-14.2 5.8-10.8.3-11.5.9-11.3 10.8.1 4.2-.3 8.7-.9 10.1-1.4 3.8-5.6 5.5-12.6 5.2-10.4-.5-12.9-3.3-12.6-13.5.1-3.5 0-7.2-.3-8.3-2-6.1-19.5-6.9-24.2-1.1-1.9 2.3-2.2 3.6-1.7 8.2 1.1 11.2-1.6 14.4-12.4 14.7-11.1.4-14.3-2.9-13.6-13.7.4-6-.9-10.4-3.4-11.5-2.6-1.1-4.6-1.5-6.2-1.4-.8.1-10.4.2-21.2.3-16.8.1-19.8.3-20.4 1.7-.4.8-.8 25.6-1 55-.1 29.4-.3 53.7-.4 54-.3.7-.3 4.6 0 10 .1 2.5.1 4.9 0 5.5-.1.5-.1 5.2 0 10.4.3 18 3 20.7 21.5 21.3l5 .2.1 8.6c.3 13.9 3.1 16.8 15.9 16.4 7.1-.3 149.5-.3 158.3 0 4.5.1 7.6.6 8.1 1.4.4.7.6 5.1.5 9.9-.4 13.5 2.9 17.6 15.1 19 3.3.3 4.6-.1 7.3-2.4 3.5-3 3.8-4.2 4.1-19.8.1-4.6.3-5.1 3.3-6.4 5.2-2.3 29.9-3.4 37.8-1.6 8.5 1.9 11 5.9 11.4 18.2.2 7.3 1.7 9 7.4 8.7 2-.1 6.4-.2 9.7-.3 9.2-.2 9.3-.5 9.3-27.8 0-12.2.3-22.6.6-23.1s4.2-.8 8.8-.7c4.6.2 10.3-.2 12.8-.7 2.5-.5 10.3-1.1 17.4-1.2l12.8-.2-.5 21.5c-.6 21-1.6 28.3-3.9 29.7-.6.4-3.2.9-5.6 1.1-13.6 1-17.5 4.7-17.3 16.2 0 3.6-.3 7.3-.9 8.1-.8 1.2-5.2 1.6-26.3 2-19.8.4-25.8.8-27.1 1.9-1.4 1.2-1.7 3.6-1.6 17.5.2 51.7.1 53.4-2.4 56.2-1.9 2.3-3.2 2.7-8.7 3.1-3.5.2-7.2.5-8.1.7-1.5.3-1.8-.3-1.9-3.2-.2-11.5-.9-24.9-1.3-25.9-.3-.7-.2-1.4.2-1.7.4-.2.7-3.6.7-7.5-.2-8.3-2.1-11.8-7.5-13.6-2.6-.8-35.9-1.1-126-1-116.9 0-122.6.1-125.2 1.9-6.3 4.2-5.6 20.2 1 23.2.9.4 44.5.9 96.7 1 52.3.1 97 .5 99.5.8 6.8 1 8.5 3.2 8.4 11.4-.1 9.8-.7 14.2-1.9 14.3-.5 0-3.7.2-7 .3-15 .7-17 2.7-17.4 16.6-.1 4.1-.4 7.7-.7 7.9-.2.3-15.4.6-33.7.7-18.2.1-34.8.5-36.7.9-1.9.3-8.2.8-14 .9-5.8.1-11.7.7-13.1 1.3-4 1.7-6 7-5.8 15.3.1 3.9 0 7.3-.3 7.5-.2.3-15 .6-32.9.8-39.9.4-42.6 1-45.8 10.6-1.2 3.6-.9 26.1.4 33.9 1.4 8.1-2.4 7.7 68.2 7.4l62.4-.4-.2 12.2c-.1 6.6-.6 12.3-1 12.5-.4.3-27.5.7-60.3.9-39.1.3-60.7.8-62.9 1.5-4.7 1.6-6.9 5.8-6.7 12.9.5 17.7.4 53.2-.1 53.2-1.8 0 .8 8 3.4 10.5 2 1.9 3.8 1.9 49.4 2.1 55.1.1 50.8-.8 50.9 10.7.1 14.1 1.6 14.7 31.8 14.6 16.8-.1 23-.5 24.3-1.4 1.5-1.1 1.8-2.8 1.8-8.8 0-11.2 3.5-15.1 14.8-16.3 6.5-.7 6.3-1.5 6.2 16.8v12.8h207.9c194.4 0 208.1-.1 209.8-1.7 1.6-1.4 3.9-1.7 13.1-1.6 16.5.2 15.2 2.6 15-28.5-.4-43.7-.4-50.5.3-58.5 1.3-15.9-.9-18.4-15.6-18.2-5.3.1-9.6.7-10.2 1.3-.7.7-1.7 1.2-2.2 1.2-.6 0 0-.7 1.2-1.6 1.6-1.1 2.1-2.2 1.6-3.6-1.1-3.6-.5-12.8 1.1-16.2 2.1-4.4 5.5-5.8 13.7-5.7 7 .1 9.7-1.2 9.9-4.7.5-5.4.4-7.9-.3-9.9-.4-1.2-.3-2.5.1-2.8.5-.3.6-2 .2-3.7-.7-3.6-.7-15 .1-16.4.2-.5.4-26.5.4-57.8l-.1-56.9-2.8-2.1c-2.8-2.1-3.8-2.1-50.5-2.3-26.2-.1-48.2-.2-48.9-.2-.7-.1-1.2-3.2-1.3-9.4-.4-18.5-.3-34.3.3-36.7.3-1.4.6-2.8.6-3.2.2-1.5 7.1-2.8 13.4-2.4 7.9.5 11.1 2.5 11.4 7.1.1 1.6.2 5.6.4 8.8.2 5 .6 6.1 3.1 8.2 5.5 4.7 20.4 2.3 22.8-3.6 1.6-3.7 1.8-6.6.9-10-.4-1.4-.1-3.9.6-5.7 1.6-3.6 4.1-4.3 15.2-3.9l7.3.2.1 3c0 1.6 0 5.7-.1 9-.1 4.8.3 6.6 2 8.8 4.4 5.5 19.9 5.5 23.6 0 1.4-2.3 1.7-4.9 1.6-15.8 0-7.1-.1-24.3-.1-38-.1-25.8-.1-27.6-.1-29.8-.1-.6 0-10.2.1-21.2.1-19.3 0-20-2.1-22.2-2.4-2.5-2.6-2.5-13.7-2.7-4-.1-7.7-.6-8.4-1.3-.7-.7-1.1-4-.9-9 .1-4.3.2-8.6.2-9.5-.1-2.5 1-2.9 8.1-3.4 3.4-.2 7.2-.6 8.4-.8 3.6-.8 7.3-3.7 8-6.5.8-3 .7-40.4-.1-43.5-.8-3.2-7-6.9-12-7.1-4.3-.2-11.3 2.3-12.7 4.7-.4.6-2.6 1-5.1.9-12.4-.7-21.1-.4-20.3.9.3.5-1.1.2-3-.6-4-1.6-15.3-2.2-20-.9-3.3.8-8.2 1-18.8.4-7.7-.4-7.9-.7-8.2-9.9-.1-3-1.1-7.8-2.2-10.5-1.4-3.5-1.8-6.1-1.3-8.7.4-2 .6-13 .4-24.3l-.2-20.6 2.5-2.3c2.2-2.1 3.4-2.4 9.7-2.2 7.9.2 11.1 1.7 12.3 5.6.5 1.4.8 11 .7 21.5-.1 20 .7 24.3 4.4 24.6 8.2.7 69.1.4 70.5-.3 3.1-1.6 4.4-6.3 4.1-15.1-.3-9.1-.3-35 0-46.7.2-10.3-.9-13.7-5.1-15-1.8-.7-6.3-1.2-9.9-1.4-8.7-.3-9.7-1.6-10.5-14.5-.8-11.8-1.8-13-10.1-12.1-11.9 1.3-16-2.5-16.2-14.8-.1-7.6-.1-7.7 2.9-9.2 2.4-1.2 7.2-1.5 22.5-1.6 10.7-.1 20.4-.4 21.5-.7 4-1.3 4.9-4.5 4.5-16.2-.4-15.5-.3-66 .2-85 .5-19.7-.5-23.6-6.5-26.6-2.2-1.2-4.8-1.8-5.8-1.6-1.1.3-1.9.2-1.9-.1 0-.4-2.5-.7-5.6-.7-6.4 0-7.9-1.1-6.4-4.9.5-1.4.8-2.6.6-2.6-.2 0 .1-2.1.8-4.8.6-2.6 1.1-6.5 1.1-8.7l-.1-4 6.1-.1c14.3-.3 17.1-2.9 17.5-16.7.5-19 .2-89.4-.4-91.5-.4-1.2-1.8-2.5-3-2.8-1.3-.3-11.6-.6-23-.7-19.3-.2-20.7-.3-22.6-2.3-2.3-2.2-3.2-9.4-2.1-16.1l.6-3.6 7.5-.2c14.3-.3 15.8-1.9 17.5-17.9.3-2.7.7-5.2 1-5.6.2-.4 4-.7 8.5-.8 11.8-.1 11.6-.1 14-2 1.9-1.5 2.3-3 2.6-9.2.4-8.3-.9-14.1-3.8-16.7-2-1.8-9.6-2.2-17.3-.9-3.5.6-16.2.9-27.5.7l-3.5-.1-.1-9.5c-.1-8.2-.4-9.9-2.5-12.9-2.7-4-5.6-4.9-15.1-4.8-5.5.1-7-.2-7.7-1.7-1.4-2.6-1.9-7.2-1.1-10.6.4-1.7.4-4 0-5-1.5-4.2.3-6 6.1-6.1 3-.1 14.3-.5 25.2-.8l19.7-.7.1 2.3c.1 1.3.1 5.9 0 10.3-.1 9 .7 10.7 6 12.8 4 1.6 12.2 1.5 16.1-.1 2.5-1 5-4.1 4.7-5.9-.1-.4-.1-1 0-1.3.2-.5.1-113-.1-135.5 0-7.2.2-16.9.5-21.6.3-4.7.2-10.1-.2-12-.9-4.8-5.1-6.8-13.3-6.2-14.1 1.1-35.6.5-36.5-1-.4-.6-.8-5.4-1-10.8-.5-12.4-.1-12.9 10.6-12.7 5.7 0 8.5-.4 10.3-1.6 4.5-2.9 5-5.7 4.9-25.2-.1-9.9.3-19.3.8-20.7 1.5-3.8 5.6-5.4 12.9-5.1 5.2.3 6.6-.1 8.8-1.9 4.6-4 4.4-19.9-.3-23.9-1-.8-4.7-1.4-10.2-1.5-4.7-.1-9.6-.2-10.9-.2-2-.1-2.2-.5-1.8-4.9.5-4.5 1.7-15.2 2.1-18.1.2-2 3.1-2.6 10.7-2 4.7.3 9.3-1.6 11.4-4.8 1.5-2.3 1.7-8 2-52.9l.3-50.4H921C802.6 0 791 .1 789.5 1.6zm41 80.4c.3.6-.4 1-1.7 1-1.8 0-2-.2-.8-1 1.9-1.2 1.8-1.2 2.5 0zm4.8.7c-.7.2-1.9.2-2.5 0-.7-.3-.2-.5 1.2-.5s1.9.2 1.3.5zM797 108.5c0 .1-1.5.2-3.2.2-2.6.1-2.9-.1-1.3-.7 1.7-.6 4.5-.3 4.5.5zm5.4-.4c.3.3-.5.5-1.9.5-1.3 0-2.2-.3-1.9-.7.4-.8 3-.6 3.8.2zm-145.6 52.4c-.3.3-.9-.2-1.2-1.2-.6-1.4-.5-1.5.5-.6.7.7 1 1.5.7 1.8zm-5.8 78.1c0 .2-.9.4-2 .4s-2-.4-2-.9.9-.7 2-.4c1.1.3 2 .7 2 .9zm-6.7.1c-.7.2-1.9.2-2.5 0-.7-.3-.2-.5 1.2-.5s1.9.2 1.3.5zm13 0c-.7.2-2.1.2-3 0-1-.3-.4-.5 1.2-.5 1.7 0 2.4.2 1.8.5zm158.4 80.5c-.3.8-.6.5-.6-.6-.1-1.1.2-1.7.5-1.3.3.3.4 1.2.1 1.9zm.6 3.1c.3.8.2 2-.3 2.6-.5.9-.7.4-.7-1.3 0-2.9.2-3.2 1-1.3zm-.6 9.7c-.2 1.1-.6 2.2-.9 2.6-.4.3-.5-.2-.3-1.3.2-1 .4-2.1.4-2.6.1-.4.3-.7.6-.7s.4.9.2 2zm-2.7 6.4c0 .2-.8 1-1.7 1.7-1.6 1.3-1.7 1.2-.4-.4 1.3-1.6 2.1-2.1 2.1-1.3zm129.4 3.4c.2.4-.5.9-1.7.9-1.7.2-1.9 0-.7-.7 1.8-1.2 1.8-1.2 2.4-.2zm29.9.9c-.7.2-1.9.2-2.5 0-.7-.3-.2-.5 1.2-.5s1.9.2 1.3.5zm-51.3.7c0 .2-.7.7-1.6 1-.8.3-1.2.2-.9-.4.6-1 2.5-1.4 2.5-.6zm-131.7 3.1c-.3.9-.8 1.4-1 1.1-.3-.3-.2-.9.2-1.5.9-1.6 1.5-1.3.8.4zm-.3 6c0 .8-.2 1.5-.4 1.5s-.6-.7-1-1.5c-.3-.8-.1-1.5.4-1.5.6 0 1 .7 1 1.5zm0 3.5c0 .5-.2 1-.4 1-.3 0-.8-.5-1.1-1-.3-.6-.1-1 .4-1 .6 0 1.1.4 1.1 1zm0 8c0 .5-.2 1-.4 1-.3 0-.8-.5-1.1-1-.3-.6-.1-1 .4-1 .6 0 1.1.4 1.1 1zm130.1 2.3c-.6.8-.7 1.8-.3 2.2.4.5.1.5-.6.1-1-.6-1-1.1-.1-2.2.6-.8 1.4-1.4 1.6-1.4.3 0 0 .6-.6 1.3zm-261.5 35.6c0 4.9-.3 9.2-.6 9.4-.3.3-.5-3.1-.4-7.6.1-9.2.2-10.7.8-10.7.2 0 .3 4 .2 8.9zm.4 12.1c0 .5-.2 1-.4 1-.3 0-.8-.5-1.1-1-.3-.6-.1-1 .4-1 .6 0 1.1.4 1.1 1zm.5 6c.3.5.1 1-.4 1-.6 0-1.1-.5-1.1-1 0-.6.2-1 .4-1 .3 0 .8.4 1.1 1zM853 498.6c0 .8-1.9 1.3-2.4.6-.3-.5.1-.9.9-.9s1.5.2 1.5.3zm3.7 0c-.3.3-1.2.4-1.9.1-.8-.3-.5-.6.6-.6 1.1-.1 1.7.2 1.3.5zm6.2.9c2.7 1.3 4.7 4.2 3.7 5.2-.2.3-.7-.4-1-1.5-.4-1.1-2.3-2.7-4.4-3.6-2-.8-3.1-1.5-2.4-1.5.7-.1 2.6.6 4.1 1.4zm-74.2 54c0 .8-.4 1.2-.9.9-.5-.3-.6-1-.3-1.5.9-1.3 1.2-1.1 1.2.6zm-43.4 52.2c.3.5-.6.9-2 1-1.9.1-2.2-.1-1.2-.8 1.7-1.1 2.6-1.1 3.2-.2zm12 0c.3.5-.6.9-2 1-1.9.1-2.2-.1-1.2-.8 1.7-1.1 2.6-1.1 3.2-.2zm6 0c.3.5-.6.9-2 1-1.9.1-2.2-.1-1.2-.8 1.7-1.1 2.6-1.1 3.2-.2zm17 1c-.7.2-1.9.2-2.5 0-.7-.3-.2-.5 1.2-.5s1.9.2 1.3.5zm6.2 2.3c2.6 2.8 1.5 3.1-1.2.3-1.2-1.3-1.9-2.3-1.4-2.3.4 0 1.6.9 2.6 2zm213 8.9c.3.5.2 1.2-.3 1.5-.5.3-.9-.1-.9-.9 0-1.7.3-1.9 1.2-.6zm-210.8 1.6c0 .8-.4 1.2-.9.9-.5-.3-.6-1-.3-1.5.9-1.3 1.2-1.1 1.2.6zm210.8 7.4c.3.5.2 1.2-.3 1.5-.5.3-.9-.1-.9-.9 0-1.7.3-1.9 1.2-.6zM663 659c0 .5-.2 1-.4 1-.3 0-.8-.5-1.1-1-.3-.6-.1-1 .4-1 .6 0 1.1.4 1.1 1zm10 0c0 .7-7.8.5-8.6-.3-.2-.2 1.6-.4 4.1-.4 2.5 0 4.5.3 4.5.7zm4 0c0 .5-.7.7-1.5.4-.8-.4-1.5-.8-1.5-1 0-.2.7-.4 1.5-.4s1.5.4 1.5 1zm4-.2c0 .5-.7.9-1.5.9s-1.2-.4-.9-.9c.3-.4.9-.8 1.5-.8.5 0 .9.4.9.8zm28 2.4c0 .5-.9.4-2-.2-1.1-.6-2-1.2-2-1.4 0-.2.9-.2 2 .1 1.1.3 2 .9 2 1.5zm2.4 5.4c.3.8.2 1.2-.4.9-.6-.3-1-1-1-1.6 0-1.4.7-1.1 1.4.7zm1 12.9c-.4.8-.8 1.5-1 1.5-.2 0-.4-.7-.4-1.5s.4-1.5 1-1.5c.5 0 .7.7.4 1.5zm-.7 7.7c-.3.8-.6.5-.6-.6-.1-1.1.2-1.7.5-1.3.3.3.4 1.2.1 1.9zm1.3 17.3c0 .7 1.5 2.5 3.3 3.9 1.7 1.4 2.7 2.6 2.1 2.6-1.6 0-6.1-4.7-6.7-7-.3-1.1-.1-1.8.4-1.4.5.3.9 1.1.9 1.9zm-47.3 7.1c-.3.3-1.2.4-1.9.1-.8-.3-.5-.6.6-.6 1.1-.1 1.7.2 1.3.5zm69.8.4c.3.5.2 1-.4 1-.5 0-1.3-.5-1.6-1-.3-.6-.2-1 .4-1 .5 0 1.3.4 1.6 1zm1.2 5.2c-.3.7-.5.2-.5-1.2s.2-1.9.5-1.3c.2.7.2 1.9 0 2.5zm.6 20.3c-.3.9-.8 1.4-1 1.1-.3-.3-.2-.9.2-1.5.9-1.6 1.5-1.3.8.4zM607 738c0 .5-.5 1-1.1 1-.5 0-.7-.5-.4-1 .3-.6.8-1 1.1-1 .2 0 .4.4.4 1zm10.4 0c.3.3-1 .6-2.9.5-1.8 0-3.6-.2-3.9-.5-.3-.3 1-.6 2.9-.5 1.8 0 3.6.2 3.9.5zm3.6 0c0 .5-.2 1-.4 1-.3 0-.8-.5-1.1-1-.3-.6-.1-1 .4-1 .6 0 1.1.4 1.1 1zm8.4 0c.3.3-1 .6-2.9.5-1.8 0-3.6-.2-3.9-.5-.3-.3 1-.6 2.9-.5 1.8 0 3.6.2 3.9.5zM876 764c-.8.5-1.9 1-2.5 1-.5 0-.3-.5.5-1s2-1 2.5-1c.6 0 .3.5-.5 1zm-4 1.4c0 .3-.4.8-1 1.1-.5.3-1 .1-1-.4 0-.6.5-1.1 1-1.1.6 0 1 .2 1 .4zm-109 23.2c0 .2-2.6.3-5.7.2l-5.8-.1 4.5-.6c4.2-.6 7-.4 7 .5zm-23 0c0 .8-1.9 1.3-2.4.6-.3-.5.1-.9.9-.9s1.5.2 1.5.3zm5.4.3c.3.4-.4.7-1.4.6-2.7-.2-3.3-1-1-1.2 1.1-.1 2.2.2 2.4.6zm5.6-.5c0 .2-.9.6-2 .9-1.1.3-2 .1-2-.4s.9-.9 2-.9 2 .2 2 .4zm-116.7 7.1c-.3.9-.8 1.4-1 1.1-.3-.3-.2-.9.2-1.5.9-1.6 1.5-1.3.8.4zm233.7 17c0 2.9-4.7 4.8-11.5 4.6-7.7-.1-10.9 1.1-12.9 5.3-1.8 3.5-2.2 2-.5-1.7 1.7-3.7 5.2-5.1 13.5-5.1 6.7-.1 7.8-.4 9.3-2.3 1.9-2.7 2.1-2.7 2.1-.8zm-26 26.9c0 1.2-2.6 1.6-13.9 1.8-9.5.2-13.7 0-13.4-.8.2-.7 4.6-.9 12.7-.6 8.2.2 12.6 0 13.1-.7.9-1.5 1.5-1.4 1.5.3zm-137.5 1.7c.2.3-.8.5-2.5.5-1.6 0-2.7-.3-2.5-.6.5-.8 4.2-.6 5 .1zm-35.5.4c0 .2-1 .9-2.2 1.5-2.2 1.1-2.2 1-.4-.4 2.1-1.7 2.6-1.9 2.6-1.1zm28.3.2c-.7.2-1.9.2-2.5 0-.7-.3-.2-.5 1.2-.5s1.9.2 1.3.5zm79.3.5c.3.4-.1.5-1 .4-.8-.1-1.8-.5-2.2-.8-.3-.4.1-.5 1-.4.8.1 1.8.5 2.2.8zm20.4-.2c0 .5-.2 1-.4 1-.3 0-.8-.5-1.1-1-.3-.6-.1-1 .4-1 .6 0 1.1.4 1.1 1zm7.4-.2c.2.4-.5.9-1.7.9-1.7.2-1.9 0-.7-.7 1.8-1.2 1.8-1.2 2.4-.2zm4 0c.3.5-.1.9-.9.9s-1.2-.4-.9-.9c.3-.4.7-.8.9-.8.2 0 .6.4.9.8zm4.3-.2c-.3.3-1.2.4-1.9.1-.8-.3-.5-.6.6-.6 1.1-.1 1.7.2 1.3.5zm29 10.6c-.3.7-.5.2-.5-1.2s.2-1.9.5-1.3c.2.7.2 1.9 0 2.5zm0 9c-.3.8-.6.5-.6-.6-.1-1.1.2-1.7.5-1.3.3.3.4 1.2.1 1.9zm-1 4c-.3.8-.6.5-.6-.6-.1-1.1.2-1.7.5-1.3.3.3.4 1.2.1 1.9zM653 868c0 .5-.5 1-1.1 1-.5 0-.7-.5-.4-1 .3-.6.8-1 1.1-1 .2 0 .4.4.4 1zm188-.6c0 .2-.8 1-1.7 1.7-1.6 1.3-1.7 1.2-.4-.4 1.3-1.6 2.1-2.1 2.1-1.3zm32 .6c0 .5-.2 1-.4 1-.3 0-.8-.5-1.1-1-.3-.6-.1-1 .4-1 .6 0 1.1.4 1.1 1zm19 .6c0 .2-2.1.3-4.7.2-3 0-4.1-.3-2.9-.7 1.8-.7 7.6-.3 7.6.5zm-257 .4c0 .5-.8 1-1.7 1-1.5 0-1.6-.2-.3-1 1.9-1.2 2-1.2 2 0zm6.3-.3c-.7.2-1.9.2-2.5 0-.7-.3-.2-.5 1.2-.5s1.9.2 1.3.5zm4.4-.1c-.3.3-1.2.4-1.9.1-.8-.3-.5-.6.6-.6 1.1-.1 1.7.2 1.3.5zm4 0c-.3.3-1.2.4-1.9.1-.8-.3-.5-.6.6-.6 1.1-.1 1.7.2 1.3.5zm229.3.3c0 .4-1.1.6-2.5.3-1.4-.2-2.5-.6-2.5-.8 0-.2 1.1-.4 2.5-.4s2.5.4 2.5.9zm21.7-.3c-.3.3-1.2.4-1.9.1-.8-.3-.5-.6.6-.6 1.1-.1 1.7.2 1.3.5zm-77.7 1.8c0 .2-.7.7-1.6 1-.8.3-1.2.2-.9-.4.6-1 2.5-1.4 2.5-.6zm-5.1 4.8c-.6 1.2-1.5 3.3-2 4.7-.5 1.7-.8 2-.8.8-.1-1.8 2.5-7.7 3.5-7.7.2 0-.1 1-.7 2.2zm-191.5 20.7c.3.4-.6.6-1.9.3-1.4-.2-2.5-.6-2.5-.8 0-.8 3.9-.4 4.4.5zm214.5 7.1c0 1-.3.8-.9-.5-1.2-2.7-1.2-4.3 0-2.5.5.8.9 2.2.9 3zm-.2 13.2c-.2 2.4-.4.7-.4-3.7s.2-6.3.4-4.3c.2 2.1.2 5.7 0 8zm-182.4 4.5c-.7.2-1.9.2-2.5 0-.7-.3-.2-.5 1.2-.5s1.9.2 1.3.5zm262.1 19.8c-.4.8-.8 1.5-1 1.5-.2 0-.4-.7-.4-1.5s.4-1.5 1-1.5c.5 0 .7.7.4 1.5zm-1.9 3.5c-.3.5-1.6 1.5-2.8 2.1-1.9.9-1.9.8.3-1 2.8-2.3 3.4-2.6 2.5-1.1zm-233.7 54.5c-.3.3-.9-.2-1.2-1.2-.6-1.4-.5-1.5.5-.6.7.7 1 1.5.7 1.8zm160.6.7c-.3.4-1.1.5-1.9.1-2.1-.7-1.9-1.2.4-1 1.1 0 1.8.5 1.5.9zm7.1-.3c-.3.2-1.7.6-3.2.7-2 .2-2.3 0-1.4-.6 1.5-.8 5.4-1 4.6-.1zm5.9 0c-.8.8-4.3.8-3.8 0 .2-.4 1.3-.7 2.4-.6 1 .1 1.7.3 1.4.6zm6.3-.3c-.8.8-4.8 1.3-4.3.6.2-.4 1.4-.8 2.6-.9 1.2-.1 2 0 1.7.3zm7.8.3c-.8.7-6.5.8-6 .1.2-.3 1.8-.6 3.4-.6 1.7 0 2.8.2 2.6.5zm4.5-.5c0 .2-.7.7-1.6 1-.8.3-1.2.2-.9-.4.6-1 2.5-1.4 2.5-.6zm4 0c0 .2-.7.7-1.6 1-.8.3-1.2.2-.9-.4.6-1 2.5-1.4 2.5-.6zm7.5.5c-.8.7-6.5.8-6 .1.2-.3 1.8-.6 3.4-.6 1.7 0 2.8.2 2.6.5zm4.5-.5c0 .2-.7.7-1.6 1-.8.3-1.2.2-.9-.4.6-1 2.5-1.4 2.5-.6zm7.5.5c-.8.7-6.5.8-6 .1.2-.3 1.8-.6 3.4-.6 1.7 0 2.8.2 2.6.5zm5.9 0c-.8.8-4.3.8-3.8 0 .2-.4 1.3-.7 2.4-.6 1 .1 1.7.3 1.4.6zm7 0c-.7.8-5.4.9-4.9.1.2-.3 1.5-.6 2.9-.6s2.3.2 2 .5zm11 0c-.7.7-9.3.8-8.9 0 .2-.3 2.4-.6 4.9-.5 2.5 0 4.3.2 4 .5zm6 0c-.8.8-4.3.8-3.8 0 .2-.4 1.3-.7 2.4-.6 1 .1 1.7.3 1.4.6zm7 0c-.7.8-5.4.9-4.9.1.2-.3 1.5-.6 2.9-.6s2.3.2 2 .5zm9 0c-.7.7-7.3.7-6.8 0 .2-.4 1.9-.6 3.8-.6 2 .1 3.3.3 3 .6zm-25.7 46.3c.4 2.8-.6 1.8-1.2-1.2-.2-1.2-.1-2 .2-1.6.4.4.8 1.6 1 2.8zM661 1076c0 .5-.5 1-1.1 1-.5 0-.7-.5-.4-1 .3-.6.8-1 1.1-1 .2 0 .4.4.4 1zm139.4-.2c.3.5-.1.9-.9.9s-1.2-.4-.9-.9c.3-.4.7-.8.9-.8.2 0 .6.4.9.8zm8.6.8c0 .2-.7.4-1.5.4s-1.5-.4-1.5-1c0-.5.7-.7 1.5-.4.8.4 1.5.8 1.5 1zm14 0c0 .2-1.3.4-3 .4-1.6 0-3-.4-3-.8 0-.5 1.4-.7 3-.4 1.7.2 3 .6 3 .8zm-9.7.1c-.7.2-1.9.2-2.5 0-.7-.3-.2-.5 1.2-.5s1.9.2 1.3.5zm16 0c-.7.2-1.9.2-2.5 0-.7-.3-.2-.5 1.2-.5s1.9.2 1.3.5zm27.6 27.3c-.6.5-1.8.6-2.6.3-1.9-.8-1.6-1.1 1.3-1.1 1.7 0 2.2.3 1.3.8zm4.1-.6c0 .3-.4.8-1 1.1-.5.3-1 .1-1-.4 0-.6.5-1.1 1-1.1.6 0 1 .2 1 .4zm3.7.2c-.3.3-1.2.4-1.9.1-.8-.3-.5-.6.6-.6 1.1-.1 1.7.2 1.3.5zm4.3 0c0 .8-1.9 1.3-2.4.6-.3-.5.1-.9.9-.9s1.5.2 1.5.3zm3.7 0c-.3.3-1.2.4-1.9.1-.8-.3-.5-.6.6-.6 1.1-.1 1.7.2 1.3.5zm11.3 0c0 .8-1.9 1.3-2.4.6-.3-.5.1-.9.9-.9s1.5.2 1.5.3zm31-.1c0 .7-3 1.3-3.4.7-.3-.4.4-.9 1.5-.9 1-.1 1.9 0 1.9.2zm8-.1c0 .2-.7.7-1.6 1-.8.3-1.2.2-.9-.4.6-1 2.5-1.4 2.5-.6zm11 .2c0 .8-1.9 1.3-2.4.6-.3-.5.1-.9.9-.9s1.5.2 1.5.3zm11-.2c0 .3-.4.8-1 1.1-.5.3-1 .1-1-.4 0-.6.5-1.1 1-1.1.6 0 1 .2 1 .4zm7 .2c0 .8-1.9 1.3-2.4.6-.3-.5.1-.9.9-.9s1.5.2 1.5.3zm9.7 0c-.3.3-1.2.4-1.9.1-.8-.3-.5-.6.6-.6 1.1-.1 1.7.2 1.3.5zm8.3-.2c0 1.1-1.9 1.5-2.5.6-.3-.5.1-1 .9-1 .9 0 1.6.2 1.6.4zm6 .2c0 .8-1.9 1.3-2.4.6-.3-.5.1-.9.9-.9s1.5.2 1.5.3zm5.4.5c-.4.7-4.4 0-4.4-.7 0-.2 1.1-.3 2.4-.2 1.4.1 2.3.5 2 .9zm6.6-.7c0 .3-.4.8-1 1.1-.5.3-1 .1-1-.4 0-.6.5-1.1 1-1.1.6 0 1 .2 1 .4zm3.7.2c-.3.3-1.2.4-1.9.1-.8-.3-.5-.6.6-.6 1.1-.1 1.7.2 1.3.5zm5.2.4c-.6.5-1.8.6-2.6.3-1.9-.8-1.6-1.1 1.3-1.1 1.7 0 2.2.3 1.3.8zm4.1 0c0 .5-.2 1-.4 1-.3 0-.8-.5-1.1-1-.3-.6-.1-1 .4-1 .6 0 1.1.4 1.1 1zm5 0c0 .5-.2 1-.4 1-.3 0-.8-.5-1.1-1-.3-.6-.1-1 .4-1 .6 0 1.1.4 1.1 1zm6.9 0c-.6.5-1.8.6-2.6.3-1.9-.8-1.6-1.1 1.3-1.1 1.7 0 2.2.3 1.3.8zm4.1 0c0 .5-.2 1-.4 1-.3 0-.8-.5-1.1-1-.3-.6-.1-1 .4-1 .6 0 1.1.4 1.1 1zm6 0c0 .5-.2 1-.4 1-.3 0-.8-.5-1.1-1-.3-.6-.1-1 .4-1 .6 0 1.1.4 1.1 1zm-157 73.4c0 .2-.8 1-1.7 1.7-1.6 1.3-1.7 1.2-.4-.4 1.3-1.6 2.1-2.1 2.1-1.3zm-22.3 5.2c-.3.3-1.2.4-1.9.1-.8-.3-.5-.6.6-.6 1.1-.1 1.7.2 1.3.5zM742.4 1206c.5 0 .7.3.4.6-.8.7-5.8-2.5-5.8-3.8 0-.5 1 0 2.2 1.2 1.2 1.1 2.6 2 3.2 2zm96.6 28c0 .5-.5 1-1.1 1-.5 0-.7-.5-.4-1 .3-.6.8-1 1.1-1 .2 0 .4.4.4 1zm31.9.9c-1.3 1.1-2.6 1.7-2.8 1.5-.5-.5 3-3.3 4.3-3.4.4 0-.2.9-1.5 1.9zm-133.2 42.6c0 .8-.4 1.2-.9.9-.5-.3-.6-1-.3-1.5.9-1.3 1.2-1.1 1.2.6zm150.7 8.3c.3.5-.1.9-.9.9s-1.2-.4-.9-.9c.3-.4.7-.8.9-.8.2 0 .6.4.9.8zM548.5 1313c-2.7.3-5.4.3-6 0-1.4-.7 7.6-1.7 9.5-1 .8.3-.7.7-3.5 1zm99.5-1.4c0 .8-1.9 1.3-2.4.6-.3-.5.1-.9.9-.9s1.5.2 1.5.3zm4 0c0 .8-1.9 1.3-2.4.6-.3-.5.1-.9.9-.9s1.5.2 1.5.3zm12 0c0 .8-1.9 1.3-2.4.6-.3-.5.1-.9.9-.9s1.5.2 1.5.3zm4 0c0 .8-1.9 1.3-2.4.6-.3-.5.1-.9.9-.9s1.5.2 1.5.3zm-127.3 1c-.3.3-1.2.4-1.9.1-.8-.3-.5-.6.6-.6 1.1-.1 1.7.2 1.3.5zm196.7 24.2c.3.5-.1.9-.9.9s-1.2-.4-.9-.9c.3-.4.7-.8.9-.8.2 0 .6.4.9.8zm84.6 28.8c0 .2-1.1.3-2.4.2-1.4-.1-2.3-.5-2-.9.4-.7 4.4 0 4.4.7zm6.8.1c-1 .2-2.8.2-4 0-1.3-.2-.5-.4 1.7-.4 2.2-.1 3.2.1 2.3.4zm10 0c-1.6.2-4 .2-5.5 0-1.6-.2-.3-.4 2.7-.4s4.3.2 2.8.4zm164.2-.3c0 .3-.4.8-1 1.1-.5.3-1 .1-1-.4 0-.6.5-1.1 1-1.1.6 0 1 .2 1 .4zm5.7.2c-.3.3-1.2.4-1.9.1-.8-.3-.5-.6.6-.6 1.1-.1 1.7.2 1.3.5zm4.7.3c.4.5-.3.7-1.4.4-2.3-.6-2.6-1.3-.6-1.3.8 0 1.7.4 2 .9zm4.9-.2c-.7.2-1.9.2-2.5 0-.7-.3-.2-.5 1.2-.5s1.9.2 1.3.5zM765 1379.4c0 .3-.4.8-1 1.1-.5.3-1 .1-1-.4 0-.6.5-1.1 1-1.1.6 0 1 .2 1 .4zm-216.6 11c1.9.8 3.7 1.9 4.1 2.6.4.7-.4.5-1.8-.5-1.4-.9-4.7-2-7.4-2.5-4-.6-4.2-.8-1.5-.9 1.8 0 4.8.5 6.6 1.3zm-14.9.6c-.3.5-1.2 1-1.8 1-.7 0-.6-.4.3-1 1.9-1.2 2.3-1.2 1.5 0zm364.5 0c-.8.5-1.9 1-2.5 1-.5 0-.3-.5.5-1s2-1 2.5-1c.6 0 .3.5-.5 1zm14-.4c0 .8-1.9 1.3-2.4.6-.3-.5.1-.9.9-.9s1.5.2 1.5.3zm3.5.4c.3.6-.1.7-.9.4-1.8-.7-2.1-1.4-.7-1.4.6 0 1.3.4 1.6 1zm9.5-.4c0 .8-1.9 1.3-2.4.6-.3-.5.1-.9.9-.9s1.5.2 1.5.3zm7-.2c0 .2-.7.7-1.6 1-.8.3-1.2.2-.9-.4.6-1 2.5-1.4 2.5-.6zm4.3.3c-.7.2-1.9.2-2.5 0-.7-.3-.2-.5 1.2-.5s1.9.2 1.3.5zm4.4-.1c-.3.3-1.2.4-1.9.1-.8-.3-.5-.6.6-.6 1.1-.1 1.7.2 1.3.5zm5.6.1c-.7.2-2.1.2-3 0-1-.3-.4-.5 1.2-.5 1.7 0 2.4.2 1.8.5zm6.4-.1c-.3.3-1.2.4-1.9.1-.8-.3-.5-.6.6-.6 1.1-.1 1.7.2 1.3.5zm6 0c-.3.3-1.2.4-1.9.1-.8-.3-.5-.6.6-.6 1.1-.1 1.7.2 1.3.5zm5.6.1c-.7.2-1.9.2-2.5 0-.7-.3-.2-.5 1.2-.5s1.9.2 1.3.5zm29.2 1.5c.4.3-1.1.6-3.2.6-2.8 0-3.3-.2-1.8-.8 2.2-.8 4.1-.7 5 .2zm-11.8.4c-.3.3-1.2.4-1.9.1-.8-.3-.5-.6.6-.6 1.1-.1 1.7.2 1.3.5zm4 0c-.3.3-1.2.4-1.9.1-.8-.3-.5-.6.6-.6 1.1-.1 1.7.2 1.3.5zm-140.3 49.9c1.1.8 2.9 1.6 4 1.6 1.6.1 1.7.2.4.6-1.6.4-7.8-2.2-7.8-3.2 0-.9 1.5-.4 3.4 1zm31 26.3c.3.5-.1.9-.9.9s-1.2-.4-.9-.9c.3-.4.7-.8.9-.8.2 0 .6.4.9.8zm4.3.8c-.3.3-1.2.4-1.9.1-.8-.3-.5-.6.6-.6 1.1-.1 1.7.2 1.3.5zm8.6.1c-.7.2-2.1.2-3 0-1-.3-.4-.5 1.2-.5 1.7 0 2.4.2 1.8.5zM645.7 2.6c-.1.1-2.4.4-5 .6-6.8.7-8.2 2.4-8.4 10.6-.3 10.8.2 12.8 4.3 14.7 3.8 1.8 11.9 1.8 16.6.1 3.7-1.4 5.2-5.6 5.1-13.9-.1-6-.4-7.3-2.6-9.4-1.6-1.6-3.7-2.6-6.1-2.7-2.1-.1-3.8-.1-3.9 0z"/><path d="M425.9 685.8c-4 2.8-5.2 9.4-3.5 19 1 5.4 4.7 7.6 12.3 7.4 6.9-.2 12-2.4 13.3-5.8 2.8-7.2 0-21.2-4.3-21.5-8.8-.6-16.3-.2-17.8.9z"/></svg>